<?xml version="1.0" standalone="no"?>
<!DOCTYPE svg PUBLIC "-//W3C//DTD SVG 20010904//EN"
 "http://www.w3.org/TR/2001/REC-SVG-20010904/DTD/svg10.dtd">
<svg version="1.0" xmlns="http://www.w3.org/2000/svg"
 width="447.000000pt" height="559.000000pt" viewBox="0 0 447.000000 559.000000"
 preserveAspectRatio="xMidYMid meet">
<metadata>
Created by potrace 1.15, written by Peter Selinger 2001-2017
</metadata>
<g transform="translate(0.000000,559.000000) scale(0.100000,-0.100000)"
fill="#000000" stroke="none">
<path d="M1930 4763 c-93 -7 -229 -45 -277 -77 -108 -70 -196 -152 -254 -236
-33 -47 -75 -105 -94 -130 -67 -85 -63 -72 -98 -391 -13 -110 -6 -323 13 -454
5 -38 14 -117 20 -175 5 -58 12 -118 16 -135 25 -131 120 -310 219 -415 72
-76 115 -137 115 -164 0 -15 3 -16 15 -6 23 19 28 7 29 -68 2 -85 22 -121 130
-231 68 -71 96 -93 96 -77 0 3 -25 28 -55 57 -75 71 -125 154 -125 208 0 43
11 51 48 32 9 -5 29 -14 45 -20 15 -6 38 -16 52 -22 32 -16 184 -6 221 14 16
8 41 20 57 26 15 6 27 15 27 19 0 5 11 7 25 5 27 -6 55 16 55 41 0 9 4 16 9
16 5 0 22 5 38 11 15 7 38 13 51 15 13 1 30 8 37 14 11 9 8 17 -18 40 -31 27
-31 29 -14 48 10 11 15 26 11 36 -3 9 -1 16 4 16 14 0 73 85 65 93 -3 4 -14 2
-24 -4 -13 -6 -19 -6 -19 1 0 14 -47 13 -53 -2 -4 -10 -6 -10 -6 0 -1 16 -30
15 -37 -2 -3 -8 -20 -17 -37 -21 -18 -4 -27 -9 -20 -12 7 -2 9 -11 6 -19 -4
-10 -9 -11 -17 -5 -15 13 -61 -9 -61 -29 0 -8 -14 -17 -33 -21 -18 -4 -34 -8
-35 -10 -33 -62 -36 -64 -77 -67 -33 -3 -45 1 -60 20 -11 13 -19 29 -20 36 0
16 -2 15 -45 -5 -19 -9 -35 -23 -35 -30 0 -7 -8 -21 -19 -32 -18 -18 -19 -18
-35 10 -12 21 -23 28 -44 26 -20 -1 -30 4 -37 21 -5 12 -13 22 -18 22 -4 0 -3
8 2 19 12 21 5 32 -14 25 -19 -8 -28 13 -27 58 1 28 -2 38 -13 38 -9 0 -15 9
-15 25 0 14 -4 25 -10 25 -5 0 -10 6 -10 14 0 8 -5 18 -10 21 -11 7 -27 -28
-35 -78 -8 -42 -11 -44 -38 -19 -13 12 -29 22 -35 22 -7 0 -17 9 -24 20 -7 11
-18 20 -24 20 -7 0 -19 11 -27 24 -9 13 -28 37 -42 52 -15 16 -24 36 -22 46 3
9 0 19 -6 21 -13 4 -34 86 -42 167 -15 148 -22 759 -10 829 4 22 16 47 27 58
14 12 19 13 13 3 -8 -13 -6 -13 8 -2 9 8 15 17 14 22 -1 4 9 17 22 29 13 11
24 32 24 46 0 14 3 25 8 25 5 0 9 7 9 16 0 9 16 32 36 50 l35 34 38 -30 c33
-27 42 -30 76 -22 32 6 40 13 50 42 7 19 16 35 21 36 5 0 16 4 25 8 9 4 20 6
25 5 5 -1 14 0 19 1 6 1 31 1 57 0 39 -1 52 3 71 24 20 22 30 25 58 20 19 -4
44 -16 57 -27 27 -25 14 -23 185 -31 117 -6 137 -5 137 7 0 31 58 36 83 7 22
-26 41 -27 27 -1 -14 28 -13 41 6 41 8 0 13 -4 9 -9 -3 -5 -1 -12 4 -16 6 -3
8 -12 5 -19 -4 -9 8 -13 43 -15 38 -1 52 -7 71 -29 13 -15 37 -43 54 -62 50
-57 76 -125 81 -218 3 -45 10 -89 16 -96 7 -9 7 -16 0 -23 -7 -7 -8 -17 -1
-29 6 -11 7 -39 2 -67 -8 -57 -3 -96 17 -119 11 -12 12 -21 4 -36 -6 -11 -9
-29 -6 -41 2 -11 0 -23 -5 -26 -4 -3 -8 -31 -7 -63 0 -32 -2 -63 -6 -68 -3 -6
0 -21 6 -35 10 -19 10 -32 1 -60 -7 -19 -13 -67 -13 -106 0 -71 -2 -89 -23
-173 -14 -55 -45 -103 -100 -157 -9 -9 -15 -21 -13 -27 16 -53 15 -66 -4 -66
-11 0 -23 -9 -26 -20 -4 -11 -10 -18 -15 -15 -4 2 -22 -3 -40 -12 -28 -13 -30
-17 -16 -25 10 -5 21 -21 26 -34 9 -23 40 -34 40 -14 0 6 7 10 15 10 9 0 25
16 36 35 12 19 24 35 27 35 8 0 32 49 32 64 0 5 6 17 14 25 12 14 60 98 100
176 21 40 36 17 36 -55 0 -58 3 -71 19 -80 12 -6 24 -29 31 -63 15 -63 9 -77
-71 -172 -54 -64 -133 -193 -194 -315 -30 -60 -189 -357 -225 -420 -11 -19
-106 -208 -297 -590 -83 -168 -152 -298 -152 -290 0 8 4 35 10 59 5 24 11 137
13 250 2 113 9 235 16 271 14 76 44 148 64 156 7 3 35 38 61 77 27 40 57 85
68 101 20 29 20 30 2 40 -10 6 -30 21 -45 34 l-28 22 -104 -26 c-56 -14 -132
-41 -167 -60 -36 -18 -66 -32 -68 -30 -11 11 107 70 183 92 122 36 126 38 81
60 -37 18 -38 17 -85 -5 -69 -35 -163 -71 -157 -61 3 5 22 14 43 21 20 6 56
22 79 34 l43 22 -59 6 c-64 7 -108 -3 -154 -35 -37 -27 -127 -146 -127 -170 0
-16 10 -11 52 26 75 66 82 63 73 -33 -5 -53 -3 -81 4 -85 6 -4 11 -22 11 -39
-1 -29 -2 -30 -14 -14 -13 16 -17 11 -44 -60 -47 -123 -89 -296 -107 -443 -10
-74 -26 -171 -37 -215 -11 -44 -24 -96 -28 -115 -26 -111 -53 -190 -95 -282
-60 -131 -83 -195 -96 -277 -6 -36 -18 -100 -26 -141 -15 -68 -17 -72 -24 -45
-5 17 -7 37 -4 45 3 8 7 58 10 110 3 52 10 151 16 220 6 69 14 172 19 230 22
260 34 379 45 438 1 10 8 51 15 92 27 171 63 347 75 375 7 17 18 50 25 75 15
56 29 75 55 75 17 0 20 8 21 76 1 41 6 85 13 96 6 12 17 79 25 150 8 70 19
141 25 156 26 67 13 69 -46 9 -76 -76 -209 -158 -383 -237 -77 -35 -155 -73
-173 -84 -40 -25 -185 -110 -226 -133 -44 -24 -87 -119 -128 -277 -34 -136
-138 -641 -168 -821 -30 -177 -83 -374 -154 -566 -38 -106 -73 -208 -76 -228
l-7 -36 516 0 c486 0 515 1 510 18 -5 16 -5 16 9 -1 12 -14 31 -17 111 -17
l96 0 -25 51 c-31 61 -46 99 -39 99 3 0 21 -34 41 -75 l35 -75 1514 0 1514 0
0 914 0 914 -38 49 c-105 131 -316 303 -428 347 -81 32 -297 127 -369 161 -79
38 -208 92 -359 151 -208 82 -294 147 -401 304 -39 56 -77 111 -85 122 -12 17
-15 66 -17 237 -3 230 1 255 45 272 31 12 37 32 22 83 -8 28 -19 46 -31 49
-12 3 -19 14 -19 27 0 13 -7 28 -15 34 -14 10 -14 16 0 56 9 25 23 48 31 53 8
5 19 20 24 33 10 25 50 35 50 12 0 -6 3 -8 6 -5 4 4 -2 19 -12 34 -16 25 -19
49 -19 208 l0 180 -35 65 c-118 218 -243 320 -485 395 -227 71 -272 78 -405
68z"/>
<path d="M2070 3810 c-10 -6 -40 -56 -40 -66 0 -9 37 -3 48 8 7 7 12 8 12 4 0
-5 9 2 19 15 l19 24 11 -29 c11 -27 13 -28 54 -20 23 5 75 8 115 7 39 0 72 3
72 8 0 14 -41 31 -79 33 -20 1 -47 5 -61 9 -41 10 -157 15 -170 7z"/>
<path d="M1585 3780 c-11 -5 -15 -9 -10 -10 12 -1 -52 -30 -67 -30 -5 0 -6 5
-3 10 8 14 5 13 -37 -9 -38 -19 -98 -65 -98 -75 0 -10 63 -6 153 9 65 12 92
13 108 5 16 -9 24 -8 37 3 9 8 25 17 36 21 14 5 16 9 7 20 -10 11 -8 17 6 24
22 13 12 24 -24 28 -16 2 -41 6 -58 8 -16 3 -39 1 -50 -4z"/>
<path d="M1785 3199 c-60 -5 -123 -11 -140 -13 -17 -3 -33 0 -37 7 -10 16 -38
-2 -58 -36 -18 -32 -8 -44 26 -28 22 10 31 8 60 -10 19 -11 34 -25 34 -30 0
-5 14 -9 30 -9 17 0 30 5 30 10 0 7 18 8 49 4 34 -4 51 -3 56 7 6 9 4 11 -8 6
-8 -3 -21 1 -27 9 -7 8 -20 14 -30 14 -9 0 -20 3 -24 7 -4 4 -15 8 -23 8 -9 0
-18 6 -20 13 -3 7 4 12 16 12 11 0 22 4 25 8 2 4 34 9 70 10 37 2 76 7 89 12
12 5 15 8 7 8 -8 -1 -64 -5 -125 -9z"/>
</g>
</svg>
