<?xml version="1.0" standalone="no"?>
<!DOCTYPE svg PUBLIC "-//W3C//DTD SVG 20010904//EN"
 "http://www.w3.org/TR/2001/REC-SVG-20010904/DTD/svg10.dtd">
<svg version="1.0" xmlns="http://www.w3.org/2000/svg"
 width="2709.000000pt" height="2650.000000pt" viewBox="0 0 2709.000000 2650.000000"
 preserveAspectRatio="xMidYMid meet">
<metadata>
Created by potrace 1.15, written by Peter Selinger 2001-2017
</metadata>
<g transform="translate(0.000000,2650.000000) scale(0.100000,-0.100000)"
fill="#000000" stroke="none">
<path d="M12565 24838 c-308 -10 -434 -22 -484 -48 -22 -11 -98 -29 -168 -41
-169 -27 -242 -46 -278 -71 -17 -13 -42 -21 -60 -20 -126 7 -131 6 -219 -36
-198 -95 -366 -209 -543 -367 -49 -44 -170 -138 -267 -210 -98 -71 -208 -153
-245 -182 -36 -29 -108 -85 -160 -125 -85 -66 -100 -83 -155 -174 -80 -133
-244 -369 -324 -468 -35 -43 -79 -112 -97 -152 -31 -67 -39 -77 -102 -117 -75
-48 -82 -56 -208 -242 -48 -71 -104 -149 -123 -173 -101 -126 -167 -255 -200
-392 -28 -117 -52 -299 -52 -395 1 -348 -3 -382 -42 -409 -14 -10 -29 -47 -49
-122 -27 -105 -28 -108 -9 -121 31 -22 35 -91 12 -242 -12 -75 -26 -203 -32
-286 -6 -82 -15 -181 -20 -220 -5 -38 -12 -153 -15 -255 -4 -102 -11 -237 -16
-300 -12 -139 -2 -759 13 -845 6 -33 12 -112 13 -175 1 -106 3 -118 28 -157
l27 -43 2 -222 c1 -123 5 -228 10 -234 5 -6 11 -48 15 -93 l6 -81 29 0 c32 0
47 -23 29 -44 -8 -10 -9 -16 -1 -21 7 -4 9 -121 8 -358 -2 -320 0 -363 19
-472 12 -66 24 -169 27 -230 4 -60 11 -135 17 -165 17 -91 81 -294 97 -307 8
-7 31 -76 52 -155 65 -249 104 -354 146 -396 8 -7 14 -19 14 -27 0 -7 15 -36
33 -63 67 -106 89 -138 117 -177 15 -22 41 -65 56 -95 15 -30 35 -67 46 -82
10 -14 18 -37 18 -51 0 -13 8 -35 18 -48 11 -13 52 -76 91 -139 40 -63 90
-133 110 -155 21 -22 53 -60 72 -85 34 -45 235 -264 398 -435 48 -49 100 -107
116 -128 16 -22 39 -43 52 -48 14 -5 31 -25 39 -46 9 -20 26 -51 39 -67 47
-63 114 -207 155 -332 37 -114 42 -136 37 -194 -3 -36 -8 -74 -12 -85 -4 -14
-2 -12 9 5 8 14 15 33 16 43 0 11 9 30 20 44 11 14 20 34 20 44 0 24 36 48 63
41 33 -8 47 -22 47 -47 0 -13 12 -37 26 -54 29 -34 29 -36 3 -216 -20 -140
-13 -254 22 -359 16 -49 29 -97 29 -106 0 -30 38 -123 54 -132 9 -5 16 -16 16
-24 0 -21 30 -77 46 -87 8 -4 14 -15 14 -24 0 -21 39 -84 62 -101 10 -7 18
-18 18 -24 0 -6 28 -41 63 -78 34 -37 80 -90 102 -119 22 -29 52 -66 68 -81
15 -15 27 -35 27 -44 0 -10 9 -16 24 -16 18 0 58 -34 153 -130 70 -72 134
-137 140 -144 7 -8 18 -18 25 -23 11 -7 104 -118 143 -171 38 -51 55 -62 99
-62 28 0 51 6 61 16 18 19 14 26 -49 83 -68 63 -79 71 -91 71 -19 0 -56 46
-50 62 5 12 -3 17 -28 22 -35 6 -59 27 -70 59 -4 9 -22 27 -42 38 -19 12 -35
24 -35 29 0 4 -17 24 -37 43 -21 20 -63 60 -94 89 -90 86 -130 141 -127 176 2
35 -42 101 -114 171 -33 32 -48 54 -48 72 0 14 -15 45 -32 69 -43 56 -44 58
-59 108 -7 23 -18 47 -26 53 -7 6 -13 24 -13 38 0 15 -7 36 -15 47 -18 24 -19
52 0 87 10 20 12 35 5 53 -6 14 -8 35 -5 47 2 12 8 38 13 57 4 19 5 53 1 75
-7 34 -5 43 14 58 13 11 32 16 47 13 14 -3 40 -8 58 -12 25 -5 32 -3 32 10 0
9 6 16 14 16 18 0 46 -38 46 -62 0 -11 7 -18 20 -18 10 0 23 -7 28 -16 5 -9
24 -16 43 -17 19 -1 36 -5 39 -9 3 -3 22 -9 44 -13 36 -7 38 -7 31 15 -5 16
-4 21 6 18 8 -3 14 -12 14 -21 0 -9 10 -24 22 -32 13 -9 34 -36 49 -60 16 -27
33 -45 44 -45 10 0 25 -3 34 -6 22 -8 20 15 -1 32 -15 11 -9 11 30 0 26 -8 47
-12 47 -9 0 3 7 -1 17 -8 9 -8 24 -13 33 -11 10 2 28 -12 43 -32 49 -63 57
-68 101 -62 23 3 59 2 81 -2 24 -5 64 -2 100 5 47 10 68 11 98 2 27 -9 43 -9
61 -1 18 8 26 8 28 0 3 -7 15 -9 31 -4 15 3 25 11 22 16 -4 6 12 10 39 10 25
0 46 -3 46 -7 0 -5 42 -8 93 -8 l94 0 -8 32 -7 32 60 -3 c56 -4 95 -16 50 -16
-25 0 -29 -15 -7 -24 8 -3 21 1 29 9 8 8 24 15 36 15 12 0 28 7 37 15 11 12
18 13 29 5 10 -9 20 -8 41 4 15 8 50 26 78 40 33 17 54 36 65 58 17 35 25 37
95 19 45 -11 110 -1 110 17 0 7 3 12 8 12 4 0 16 9 27 20 10 10 44 26 75 35
34 10 53 21 49 27 -4 6 0 16 9 23 8 6 15 18 15 26 -3 47 -2 47 91 16 80 -28
94 -30 147 -21 l59 9 0 42 c0 52 6 57 56 54 52 -3 84 21 68 51 -30 56 -5 146
41 149 11 1 24 2 29 3 6 0 32 18 59 39 47 35 53 37 125 37 66 0 79 3 97 22 12
13 18 29 14 40 -4 13 2 19 21 24 31 8 75 -27 75 -59 0 -28 21 -15 46 28 24 44
58 58 106 45 30 -9 68 1 68 18 0 5 16 16 35 25 22 10 42 31 52 52 16 33 16 36
0 53 -11 10 -32 16 -57 16 -33 -1 -40 2 -40 17 0 23 -37 62 -50 54 -6 -4 -10
-2 -10 3 0 5 -25 33 -55 63 -30 30 -59 69 -64 87 -8 27 -5 37 20 72 16 22 29
43 29 47 0 5 19 21 41 37 37 26 40 31 37 69 -2 35 -8 45 -33 58 -62 34 -37 99
45 119 27 7 53 16 56 21 3 5 13 9 22 9 27 0 72 58 72 91 0 17 7 40 15 52 24
37 104 117 116 117 7 0 9 9 5 24 -9 36 2 55 41 71 33 14 35 18 29 48 -8 43
-29 57 -67 47 -17 -5 -37 -6 -46 -3 -13 5 -15 1 -10 -19 6 -22 2 -28 -22 -38
-27 -11 -109 -11 -108 0 2 14 -42 53 -75 67 -21 8 -36 18 -34 22 2 3 -17 6
-42 6 -26 0 -50 4 -54 9 -3 5 -13 2 -22 -7 -11 -10 -13 -18 -5 -22 6 -4 8 -13
5 -21 -3 -7 4 -18 14 -24 35 -19 24 -36 -20 -32 -32 3 -40 1 -40 -12 0 -9 7
-16 15 -16 8 0 15 -4 15 -10 0 -5 -7 -10 -15 -10 -8 0 -15 3 -15 8 0 4 -14 15
-30 24 -32 18 -40 38 -15 38 8 0 19 9 25 20 19 36 -27 79 -55 51 -6 -5 -28
-11 -49 -13 -22 -2 -48 -12 -60 -23 -12 -11 -31 -27 -44 -35 -14 -9 -28 -33
-35 -64 -13 -51 -41 -81 -55 -59 -19 30 -56 31 -112 2 -47 -25 -60 -28 -89
-19 -31 9 -36 7 -67 -28 -19 -20 -44 -54 -56 -75 -23 -40 -69 -61 -100 -46
-50 26 -93 -3 -107 -73 -4 -17 -15 -36 -25 -42 -62 -36 -67 -66 -11 -66 19 0
37 -5 40 -11 12 -18 -24 -46 -65 -53 -26 -4 -40 -12 -40 -21 0 -20 -19 -19
-41 1 -15 14 -32 15 -104 9 -47 -4 -85 -10 -85 -13 0 -4 -14 -13 -31 -21 -35
-16 -69 -65 -69 -101 0 -15 -12 -36 -28 -52 -16 -15 -39 -55 -52 -89 -38 -104
-94 -142 -212 -142 -43 0 -78 -4 -78 -9 0 -5 -5 -6 -11 -2 -6 3 -15 0 -20 -7
-7 -11 -13 -9 -27 9 -16 20 -25 23 -88 21 -94 -2 -112 5 -120 46 -7 39 -44 78
-76 80 -32 2 -59 58 -54 110 10 81 -88 191 -109 124 -12 -36 -38 -59 -68 -59
-15 0 -30 -7 -33 -15 -4 -8 -14 -15 -23 -15 -10 0 -37 -19 -61 -42 -24 -24
-45 -38 -47 -33 -1 6 -29 9 -60 9 -65 -2 -74 -13 -50 -60 12 -24 12 -32 -1
-65 -18 -47 -11 -69 23 -69 18 0 29 8 37 28 12 26 45 61 61 62 4 0 7 -17 7
-38 0 -48 -25 -85 -51 -77 -10 4 -45 8 -76 10 -53 3 -59 2 -82 -26 -16 -20
-33 -29 -52 -29 -34 0 -36 -12 -9 -65 23 -45 13 -68 -29 -63 -21 2 -26 9 -27
35 -1 17 -6 37 -12 45 -6 7 -24 29 -40 48 -37 45 -45 69 -31 86 9 11 4 21 -22
48 -19 19 -46 48 -61 65 -21 26 -31 31 -53 25 -14 -3 -24 -11 -22 -18 5 -14
-54 -55 -69 -49 -7 2 -10 12 -7 22 2 9 -2 23 -10 29 -12 10 -19 8 -38 -13 -32
-33 -66 -33 -81 1 -10 20 -9 30 5 53 15 26 15 30 2 41 -15 13 -21 11 -76 -18
-3 -1 -9 27 -12 64 -7 76 -19 95 -56 92 -20 -2 -26 2 -26 16 0 10 9 24 20 30
35 20 45 39 39 78 -3 20 0 46 6 58 9 16 8 25 -1 36 -14 17 -72 18 -102 2 -36
-20 -68 -17 -79 8 -7 14 -16 20 -27 17 -9 -3 -5 3 9 13 13 10 36 17 51 16 27
-3 39 15 31 50 -9 42 -82 21 -82 -23 0 -28 -20 -42 -44 -33 -23 9 -27 33 -7
44 20 10 32 42 22 58 -3 5 -16 12 -28 16 -27 9 -29 29 -7 71 11 21 13 41 8 70
-10 51 -7 65 17 91 26 28 24 60 -6 90 -25 25 -25 25 -46 5 -17 -16 -26 -18
-44 -9 -52 24 -102 225 -60 242 17 6 19 24 5 46 -7 12 -12 12 -29 -4 -17 -16
-23 -17 -36 -6 -26 22 -38 50 -26 64 10 11 6 100 -5 117 -8 13 -34 11 -34 -2
0 -7 -10 -5 -25 5 -48 31 -58 21 -90 -89 -9 -33 -23 -69 -29 -80 -7 -11 -16
-37 -19 -58 -3 -20 -16 -51 -28 -68 -17 -24 -22 -44 -20 -86 1 -48 -14 -124
-40 -190 -16 -43 -51 -29 -136 55 -116 111 -130 122 -169 122 -31 0 -74 27
-74 48 0 4 -16 16 -34 26 -19 10 -42 33 -50 50 -8 18 -24 40 -36 51 -11 10
-20 24 -20 32 0 16 -30 17 -65 1 -22 -10 -29 -8 -53 15 -15 14 -39 30 -54 36
-26 10 -28 14 -28 71 0 53 -3 64 -26 85 -15 14 -30 25 -34 25 -8 0 -33 54 -37
78 -5 40 -68 73 -78 41 -4 -10 -12 -19 -19 -19 -24 0 -36 26 -40 86 -2 33 -1
51 1 42 2 -10 9 -18 14 -18 5 0 6 12 3 28 -10 41 -14 44 -32 22 -30 -36 -58
-17 -82 56 -12 35 -26 66 -31 69 -16 11 -10 37 16 61 32 30 42 71 22 91 -18
18 -37 9 -37 -18 0 -10 -4 -19 -8 -19 -14 0 -32 24 -32 43 0 10 -14 31 -32 47
l-31 29 6 89 c6 85 5 91 -17 115 -17 18 -27 44 -32 84 -4 32 -13 72 -21 91 -7
18 -16 76 -20 130 -5 88 -12 129 -42 232 -5 19 -12 123 -15 230 -3 107 -8 240
-12 296 -6 84 -4 109 11 147 14 38 15 50 5 62 -8 10 -11 30 -7 57 3 23 -1 68
-10 103 -13 54 -13 71 -2 121 7 33 13 127 14 214 0 85 6 169 12 186 9 27 8 34
-8 48 -12 10 -19 30 -20 53 l-1 38 -9 -30 c-6 -23 -7 -15 -5 30 2 33 8 71 15
84 8 14 10 37 6 57 -5 31 -10 35 -32 33 -7 0 -32 83 -33 107 0 6 9 21 20 34
22 25 21 45 -4 104 -26 61 -21 94 19 132 34 32 45 67 25 79 -5 3 -10 15 -10
26 0 10 -5 18 -12 17 -6 -2 -13 9 -14 24 -2 15 -8 37 -14 49 -8 15 -9 19 -1
15 15 -10 32 40 25 71 -5 18 -3 24 5 19 6 -4 11 -31 11 -59 0 -38 3 -48 10
-37 12 18 10 100 -3 97 -23 -5 -31 32 -18 85 23 94 25 166 5 210 -15 35 -16
45 -4 90 11 45 11 52 -4 60 -20 11 -20 46 -1 72 19 25 19 45 0 84 -24 47 -29
201 -9 271 16 58 15 183 -1 244 -5 17 -3 33 6 43 32 39 62 178 42 198 -4 3 -8
61 -9 129 -1 67 -3 133 -4 147 -6 88 4 227 18 250 9 14 15 40 13 59 -1 19 5
41 14 51 8 9 19 51 25 95 7 55 17 90 34 114 14 20 28 48 31 62 5 19 16 29 44
38 47 14 101 14 101 1 0 -5 -7 -10 -15 -10 -8 0 -15 -4 -15 -10 0 -5 6 -10 14
-10 8 0 21 -3 30 -6 10 -4 16 -1 16 7 0 7 7 20 15 29 9 10 18 45 21 81 4 47
11 68 25 78 10 7 19 20 19 28 0 10 6 13 16 9 29 -11 64 4 64 29 0 28 65 86 86
78 23 -9 45 16 34 37 -15 28 -12 60 9 107 17 37 18 45 5 82 -14 41 -14 42 17
72 28 27 37 30 70 25 31 -5 39 -3 39 9 0 8 -8 15 -17 15 -29 0 -29 102 -1 135
12 14 29 25 38 25 20 0 60 36 60 54 0 7 9 21 20 31 11 10 20 24 20 31 0 17 48
54 71 54 11 0 25 14 35 36 9 20 23 38 31 41 7 3 13 11 13 18 0 7 12 15 28 18
15 3 39 9 53 12 22 6 28 2 39 -24 15 -37 95 -121 114 -121 8 0 29 -17 48 -37
35 -38 58 -51 58 -33 0 21 34 8 76 -29 48 -42 97 -57 137 -42 18 7 27 7 31 -2
3 -9 5 -9 5 1 1 6 8 12 17 12 9 0 28 9 43 19 16 12 32 16 40 12 28 -18 109 -1
171 34 14 8 35 15 48 15 27 0 27 4 0 40 -20 28 -20 31 -5 48 9 10 17 26 17 35
0 9 10 32 21 52 13 22 22 53 22 78 -1 77 30 104 93 82 36 -12 41 -12 60 6 11
10 25 19 32 19 6 0 22 14 34 31 14 19 29 28 40 26 9 -3 19 1 22 9 8 22 25 17
38 -11 9 -21 16 -24 45 -20 42 5 53 12 53 33 0 15 2 15 10 2 5 -8 10 -10 10
-4 0 6 10 15 22 21 18 8 26 6 39 -11 15 -19 17 -19 34 -3 9 9 20 16 23 14 74
-38 84 -40 137 -25 29 8 60 11 71 7 10 -4 33 -8 50 -8 24 -1 33 5 43 25 9 21
14 24 26 14 8 -6 17 -20 20 -30 13 -40 59 -34 70 8 5 20 8 23 15 12 8 -12 15
-12 47 -1 51 18 63 29 63 56 0 13 17 40 40 63 22 22 40 44 40 50 0 18 70 35
117 28 25 -3 56 -15 70 -26 28 -22 73 -26 90 -9 8 8 17 8 31 0 23 -13 63 -15
60 -3 -5 12 6 15 27 8 11 -3 31 -25 45 -48 14 -23 39 -47 58 -54 17 -8 32 -21
32 -29 0 -8 18 -28 39 -46 22 -17 38 -36 35 -43 -2 -6 2 -20 9 -30 13 -17 18
-18 65 -5 33 8 56 9 62 3 5 -5 98 -8 225 -7 123 1 217 -2 220 -8 9 -13 49 -11
63 3 15 15 106 -6 141 -33 30 -24 42 -24 76 3 24 19 31 20 59 10 18 -7 43 -12
55 -12 25 0 62 -17 74 -34 5 -7 12 -5 22 8 13 17 18 18 39 7 14 -8 36 -10 54
-6 17 3 39 2 49 -3 69 -35 166 -51 201 -33 40 20 94 32 105 24 15 -11 95 -18
85 -7 -4 4 -3 13 2 20 8 8 6 16 -5 27 -21 21 -19 64 3 71 9 3 25 19 34 36 12
22 25 30 45 31 15 0 37 4 48 8 16 7 14 9 -15 16 l-35 8 47 7 c38 7 55 4 85
-11 47 -24 65 -24 88 1 10 11 22 20 26 20 11 0 79 -104 79 -122 0 -20 29 -45
63 -53 16 -4 32 -17 37 -30 5 -12 19 -25 32 -28 34 -10 50 -8 43 3 -4 6 -1 17
5 25 10 12 9 15 -4 15 -22 0 -21 20 2 20 15 1 15 2 1 13 -18 13 -19 17 -19 51
0 13 -14 37 -31 54 -26 25 -31 38 -31 73 1 23 7 48 14 55 14 13 103 22 114 11
3 -3 8 -28 9 -55 3 -54 20 -88 48 -96 10 -2 21 -14 24 -26 4 -16 8 -18 14 -8
6 9 9 4 9 -14 0 -20 -5 -28 -18 -28 -27 0 -43 -20 -32 -40 6 -11 6 -30 0 -49
-7 -25 -6 -33 5 -37 22 -9 50 0 50 15 0 8 15 21 33 28 30 12 34 12 58 -12 14
-14 31 -25 39 -25 8 0 17 -5 21 -11 3 -6 20 -9 38 -5 91 16 188 36 197 41 5 4
9 1 9 -4 0 -6 6 -11 14 -11 8 0 29 -20 47 -45 18 -25 36 -45 41 -45 4 0 8 -7
8 -15 0 -42 57 -84 75 -55 3 6 12 10 20 10 9 0 13 -14 12 -52 -1 -33 2 -53 11
-55 6 -3 12 -11 12 -18 0 -25 81 -94 131 -110 51 -17 79 -49 61 -67 -15 -15
-4 -39 39 -80 26 -25 48 -38 67 -38 48 0 57 -12 37 -53 -20 -43 -7 -77 29 -77
17 0 26 -7 30 -25 4 -14 4 -30 1 -35 -3 -5 6 -20 20 -35 15 -14 37 -50 50 -79
13 -30 29 -57 34 -61 6 -3 11 -22 11 -42 0 -19 9 -46 19 -60 11 -13 23 -45 27
-71 3 -26 17 -67 30 -91 27 -49 31 -79 10 -87 -9 -3 -12 -17 -9 -41 2 -20 1
-43 -3 -52 -4 -9 -6 -101 -5 -206 2 -184 3 -191 25 -215 18 -19 23 -33 19 -56
-3 -17 2 -46 9 -65 12 -28 12 -39 2 -64 -17 -38 -18 -102 -2 -111 7 -4 28 -10
48 -14 32 -5 35 -8 35 -40 0 -31 -3 -35 -27 -38 -16 -2 -28 -9 -29 -15 0 -7
-3 -45 -5 -85 -5 -71 -5 -74 31 -122 20 -28 41 -50 46 -50 17 0 9 -52 -12 -78
-18 -23 -19 -34 -13 -91 6 -60 5 -65 -17 -82 -22 -16 -23 -20 -10 -54 15 -42
9 -84 -20 -153 -15 -35 -18 -56 -13 -82 5 -19 9 -66 10 -105 1 -38 6 -94 12
-124 9 -49 16 -61 74 -115 36 -34 68 -69 72 -80 11 -32 -31 -148 -69 -190 -34
-38 -39 -61 -10 -49 12 4 15 -8 16 -63 1 -38 4 -82 8 -99 11 -46 -6 -75 -43
-75 -49 0 -59 -11 -50 -56 10 -52 31 -101 47 -111 8 -4 19 -18 26 -30 14 -27
15 -123 1 -123 -5 0 -10 12 -10 26 0 21 -4 25 -20 21 -13 -3 -20 0 -20 10 0 8
5 11 10 8 6 -3 10 0 10 7 0 8 -9 14 -20 15 -13 1 -20 -4 -20 -17 0 -10 -7 -20
-15 -24 -22 -8 -18 -58 10 -120 29 -63 31 -88 10 -106 -16 -13 -20 -42 -8 -54
4 -4 13 -26 20 -49 13 -46 7 -61 -31 -71 -30 -7 -40 -44 -21 -73 8 -12 17 -40
21 -62 4 -24 19 -55 35 -74 31 -35 59 -87 59 -110 0 -8 -8 -25 -19 -38 -40
-52 -91 -193 -91 -254 0 -16 -6 -41 -13 -55 -10 -18 -13 -63 -12 -144 1 -108
0 -119 -17 -124 -25 -6 -19 -34 10 -47 26 -12 37 -44 27 -83 -7 -31 -20 -138
-37 -324 -8 -90 -15 -128 -24 -128 -23 0 -27 -21 -28 -160 -1 -133 -2 -138
-29 -169 -15 -18 -30 -45 -33 -59 -3 -15 -12 -52 -20 -83 -8 -30 -14 -76 -14
-101 0 -55 -7 -78 -25 -78 -14 0 -19 -11 -30 -65 -3 -19 -16 -36 -35 -47 -17
-9 -30 -23 -30 -31 0 -7 -12 -24 -26 -38 -14 -13 -30 -33 -34 -45 -5 -11 -29
-53 -55 -92 -33 -52 -53 -73 -73 -78 -54 -12 -55 -12 -49 -53 4 -36 2 -42 -33
-70 -21 -17 -41 -39 -44 -48 -8 -24 -74 -66 -96 -60 -25 6 -50 -11 -50 -35 0
-12 12 -41 26 -65 22 -38 25 -56 26 -140 1 -88 3 -99 25 -119 31 -29 29 -45
-10 -69 -48 -29 -61 -33 -124 -40 -32 -4 -64 -12 -71 -19 -7 -7 -15 -37 -18
-67 -10 -97 -11 -99 -49 -99 -27 0 -37 6 -52 30 -17 30 -33 39 -33 20 0 -5 -7
-10 -15 -10 -7 0 -18 -7 -22 -14 -5 -8 -35 -34 -67 -56 -49 -34 -65 -41 -91
-36 -23 5 -37 1 -53 -14 -12 -12 -27 -18 -34 -14 -7 5 -9 0 -6 -14 3 -12 1
-23 -6 -26 -7 -3 -7 -5 2 -5 7 -1 10 -5 7 -11 -3 -5 -1 -10 5 -10 6 0 8 -4 5
-10 -4 -6 6 -10 24 -10 19 0 43 -11 64 -30 19 -17 39 -30 45 -30 22 0 62 -24
52 -30 -6 -3 -12 -24 -14 -46 -3 -21 -8 -49 -11 -60 -9 -29 26 -61 88 -79 88
-26 147 4 147 77 0 40 0 40 33 34 84 -18 92 -18 120 4 15 12 39 43 53 68 13
26 36 62 50 81 13 19 27 46 30 60 12 61 33 90 69 100 20 5 42 8 50 5 7 -3 28
8 46 24 l34 30 -18 36 c-9 20 -17 52 -17 72 0 31 3 35 33 41 17 4 35 6 39 5
15 -4 25 35 32 113 7 76 9 81 52 127 24 26 44 52 44 57 0 6 16 25 36 43 38 35
66 83 78 133 10 41 67 123 90 129 15 4 17 11 11 42 -9 53 16 103 70 139 33 22
49 42 61 75 8 25 22 56 29 70 34 60 64 127 69 151 4 17 16 31 36 39 27 11 30
17 30 54 0 29 9 55 27 83 28 44 47 46 58 6 3 -14 8 -23 11 -20 3 3 1 21 -4 41
-6 21 -7 34 -1 31 5 -4 9 -12 9 -19 0 -8 10 -16 23 -19 12 -2 29 -7 37 -11 13
-5 19 21 38 171 12 98 24 246 26 328 3 83 12 191 21 242 15 85 15 93 0 117
-15 23 -16 37 -6 123 11 99 8 487 -4 536 -6 23 3 82 23 156 4 13 23 33 42 44
43 24 50 34 50 73 0 43 68 110 118 117 20 2 64 15 97 28 51 21 60 28 66 56 3
17 16 48 28 68 34 58 26 189 -15 238 -19 23 -24 40 -24 87 0 32 -4 62 -10 65
-5 3 -10 23 -10 44 0 20 -7 46 -15 57 -8 10 -15 27 -15 37 0 21 -10 22 -36 2
-28 -21 -64 -18 -85 7 -11 11 -19 25 -19 29 0 5 -13 22 -30 39 -33 34 -35 46
-19 120 9 41 8 55 -4 73 -28 42 -70 77 -93 77 -44 0 -54 10 -54 56 0 24 7 62
16 85 14 33 15 48 6 76 -10 33 -9 39 15 67 14 17 35 31 47 31 29 0 34 42 7 61
-17 12 -19 19 -10 42 6 15 23 41 38 57 32 34 45 72 27 79 -6 2 -3 5 6 5 9 1
18 -3 20 -8 2 -5 20 -1 41 9 21 10 44 17 51 14 7 -3 25 5 40 17 24 19 27 27
21 55 -7 37 12 91 45 126 11 12 19 27 16 33 -7 18 17 41 57 54 23 8 43 23 49
36 8 18 13 21 23 12 7 -7 11 -16 8 -21 -3 -4 6 0 21 9 21 14 29 15 42 5 23
-20 32 -42 39 -96 7 -50 36 -100 34 -59 0 11 -12 54 -27 95 -25 69 -32 79
-106 140 -43 37 -86 80 -94 96 -27 50 -28 230 -2 339 18 78 23 138 31 440 5
193 10 478 11 635 2 326 -8 403 -70 554 -31 73 -50 103 -112 170 -87 94 -153
183 -202 276 -40 74 -98 209 -98 226 0 33 -87 192 -160 294 -130 180 -309 394
-337 402 -28 8 -168 131 -288 254 -71 73 -95 90 -215 152 -74 38 -164 88 -200
110 -302 190 -435 244 -935 377 -67 18 -231 75 -326 113 -41 16 -129 44 -195
61 -65 18 -132 37 -149 42 -16 5 -102 29 -190 53 -88 24 -214 61 -280 82 -66
20 -156 41 -200 45 -89 9 -390 8 -740 -3z m4255 -6123 c19 -20 22 -32 18 -70
-4 -29 -1 -50 7 -58 26 -26 33 -55 33 -132 l0 -79 -55 -54 c-52 -51 -55 -53
-60 -30 -4 12 -23 56 -44 96 -37 72 -38 75 -28 130 6 32 8 89 4 128 -6 64 -4
73 12 83 34 19 88 13 113 -14z m-2969 -4011 c17 -15 16 -20 -20 -87 -21 -40
-36 -78 -33 -85 3 -9 -3 -13 -19 -10 -19 2 -23 8 -21 26 2 13 -6 43 -17 68
-33 70 -25 89 39 97 19 2 39 5 44 5 5 1 17 -5 27 -14z m-425 -561 c18 -3 35 0
38 6 4 6 17 11 30 11 17 0 25 -8 34 -36 11 -38 3 -71 -26 -106 -17 -21 -91
-25 -109 -7 -15 15 -62 -3 -93 -36 -12 -13 -44 -32 -71 -41 -27 -10 -49 -22
-49 -26 0 -5 -12 -26 -26 -48 -20 -30 -35 -41 -63 -46 -20 -4 -42 -10 -50 -14
-19 -10 -71 8 -71 25 0 7 9 24 20 38 11 14 20 36 20 50 0 31 20 37 98 30 l59
-5 21 40 c17 34 18 41 6 46 -8 3 -26 1 -40 -4 -37 -15 -44 -12 -43 13 0 21 1
21 9 2 7 -16 9 -17 9 -3 1 21 39 48 57 41 8 -3 14 -14 14 -25 0 -13 6 -18 18
-16 13 2 17 14 18 46 1 24 6 48 13 55 13 13 98 27 126 20 11 -3 34 -7 51 -10z
m-536 -252 c0 -5 -7 -14 -15 -21 -16 -13 -21 -55 -6 -46 5 3 13 0 19 -7 17
-21 -5 -56 -51 -77 -40 -19 -43 -24 -46 -62 -3 -61 -15 -72 -44 -44 -8 8 -27
16 -42 18 -33 3 -42 19 -23 39 13 14 25 38 46 91 8 19 23 30 52 39 28 8 47 23
61 46 19 30 49 45 49 24z"/>
<path d="M13241 19964 c-39 -31 -49 -34 -83 -29 -33 6 -38 4 -38 -12 0 -10 -9
-31 -20 -48 -11 -16 -20 -38 -20 -47 0 -10 -6 -18 -14 -18 -8 0 -17 8 -19 18
-4 16 -5 16 -6 -1 0 -10 12 -32 28 -50 31 -33 32 -47 2 -47 -10 0 -40 -21 -65
-47 -47 -49 -66 -87 -50 -103 5 -5 50 -10 99 -12 102 -3 145 13 145 55 0 13 5
28 12 35 20 20 68 14 88 -10 15 -19 20 -21 34 -8 10 7 16 25 15 39 -4 42 9 64
60 104 62 47 94 48 121 5 11 -18 20 -42 20 -53 0 -11 6 -44 13 -74 10 -47 16
-56 46 -68 23 -10 52 -13 85 -9 28 3 105 9 170 12 120 5 183 22 271 72 45 25
281 24 348 -2 32 -13 47 -25 47 -37 0 -23 20 -35 30 -19 6 10 24 10 90 1 77
-12 85 -11 109 7 14 10 27 28 29 38 4 26 -73 99 -121 114 -21 6 -43 21 -50 32
-17 29 -84 60 -110 52 -11 -4 -28 -16 -37 -27 -14 -17 -21 -19 -46 -10 -18 6
-38 7 -53 1 -17 -6 -31 -4 -50 9 -17 11 -48 18 -91 19 -45 1 -77 7 -105 22
-22 12 -44 22 -50 22 -6 0 -18 9 -28 20 -14 17 -29 20 -99 20 -46 0 -99 5
-118 11 -56 17 -295 12 -352 -7 -39 -12 -52 -13 -63 -4 -21 18 -19 35 8 53 21
15 18 16 -58 16 -76 -1 -82 -2 -124 -35z"/>
<path d="M10765 19830 c-72 -7 -205 -47 -205 -61 0 -4 9 -10 19 -14 11 -3 25
-12 31 -20 19 -23 -3 -42 -61 -49 -72 -10 -158 -44 -194 -78 -26 -26 -36 -29
-82 -26 -38 2 -54 -1 -58 -11 -4 -11 -8 -12 -17 -3 -9 9 0 25 40 65 29 29 49
56 46 60 -23 22 -143 -21 -190 -68 -9 -9 -29 -19 -45 -22 -16 -3 -32 -10 -35
-14 -3 -5 -13 -9 -22 -9 -20 0 -101 -39 -123 -58 -7 -7 -28 -23 -45 -35 -68
-48 -178 -139 -265 -218 -39 -37 -50 -74 -28 -96 12 -12 58 -3 137 25 41 15
74 19 147 17 51 -2 103 -8 115 -15 19 -10 26 -8 48 12 15 12 31 29 37 35 5 7
32 15 59 17 39 4 56 0 88 -21 34 -21 45 -23 65 -14 13 6 40 11 59 11 27 0 42
8 64 32 l29 32 116 -1 c63 0 115 3 115 6 0 4 22 8 49 8 27 0 65 6 85 13 47 15
74 6 78 -28 3 -25 7 -27 45 -27 23 0 47 -5 54 -12 6 -6 18 -9 25 -6 8 3 14 -1
14 -10 0 -8 6 -18 13 -20 9 -4 9 -6 -1 -6 -7 -1 -11 -5 -7 -11 7 -12 35 -2 35
14 1 13 35 56 45 56 4 0 28 22 54 50 51 54 119 83 186 78 40 -2 55 12 55 53 0
28 -33 69 -55 69 -13 0 -55 45 -55 60 0 5 19 11 42 15 23 4 48 14 56 21 12 13
52 19 96 16 14 -2 16 2 11 15 -4 10 -10 28 -12 40 -6 28 -21 40 -53 45 -14 1
-25 10 -25 18 0 12 -15 15 -70 15 -39 0 -76 -4 -83 -9 -25 -18 -146 14 -172
45 -24 29 -101 35 -255 19z"/>
<path d="M17283 19770 c-32 -13 -31 -59 1 -84 15 -11 29 -37 37 -67 11 -44 16
-49 35 -45 18 5 22 1 27 -31 5 -27 2 -42 -10 -55 -11 -12 -12 -18 -4 -18 7 0
9 -4 6 -10 -8 -12 5 -80 15 -80 13 0 18 151 8 255 -12 132 -40 165 -115 135z"/>
<path d="M17351 19303 c-18 -23 -21 -36 -17 -73 3 -25 1 -63 -5 -85 -13 -49
-13 -50 1 -105 26 -108 50 -127 77 -62 11 28 14 53 9 102 -4 36 -9 103 -12
149 -6 112 -13 122 -53 74z"/>
<path d="M10775 19082 c-20 -11 -50 -15 -88 -13 -47 2 -61 -1 -72 -16 -9 -12
-31 -19 -72 -23 -53 -5 -58 -7 -61 -31 -4 -37 27 -63 63 -49 15 6 29 19 32 30
6 22 18 26 28 10 10 -16 45 -12 94 12 58 27 58 27 41 38 -11 7 -4 10 25 10 26
0 35 -3 26 -9 -8 -5 -9 -11 -3 -15 16 -10 38 3 51 30 9 21 8 26 -7 31 -9 3
-19 7 -22 9 -3 1 -19 -5 -35 -14z"/>
<path d="M12270 18051 c-14 -10 -45 -21 -70 -24 -50 -7 -140 -43 -140 -57 0
-5 4 -20 10 -34 9 -24 14 -26 67 -24 71 2 151 -8 220 -28 47 -14 61 -14 135 0
46 8 100 14 122 13 54 -3 68 20 35 62 -13 17 -35 33 -49 37 -14 4 -37 19 -51
34 -23 25 -32 27 -100 27 -42 1 -93 3 -115 7 -29 4 -45 1 -64 -13z"/>
<path d="M11090 18007 c-25 -19 -54 -44 -65 -56 -19 -22 -19 -22 3 -64 12 -23
22 -49 22 -58 0 -9 21 -42 46 -72 37 -44 56 -58 91 -66 24 -7 49 -8 56 -4 7 5
26 9 42 9 17 1 62 2 100 4 l71 2 2 39 c1 21 3 57 4 78 2 42 -22 81 -49 81 -15
0 -100 61 -147 106 -22 21 -41 28 -80 31 -45 3 -56 0 -96 -30z"/>
<path d="M10373 17341 c-13 -3 -32 -14 -43 -23 -11 -10 -26 -18 -33 -18 -11
-1 -24 -9 -72 -45 -11 -9 -30 -23 -43 -33 -27 -20 -21 -52 8 -52 10 0 20 -5
22 -12 2 -6 14 5 27 25 21 35 65 57 113 57 27 0 48 11 48 26 0 8 6 14 14 14
26 0 27 18 4 43 -17 18 -29 23 -45 18z"/>
<path d="M13897 16925 c-31 -28 -55 -31 -104 -13 -29 10 -36 10 -43 -2 -9 -15
-92 -35 -205 -49 -33 -4 -79 -13 -103 -21 -35 -11 -55 -11 -101 -2 -32 7 -78
9 -102 6 -47 -7 -48 -9 -41 -86 3 -27 27 -22 54 10 13 16 37 31 53 34 37 8 85
-10 86 -30 9 -115 -37 -243 -94 -261 -39 -12 -112 0 -135 23 -15 14 -19 12
-54 -27 -20 -23 -38 -46 -38 -51 0 -5 -8 -18 -17 -28 -15 -17 -15 -20 4 -37
18 -17 34 -19 171 -15 83 2 163 9 177 14 15 6 31 8 35 5 5 -3 26 1 46 10 20 8
49 15 64 15 16 0 42 11 58 25 17 14 45 28 64 32 18 3 59 19 90 34 32 16 71 29
87 29 16 0 32 4 36 10 4 6 15 6 31 0 30 -12 45 -5 98 49 35 36 39 45 45 109 6
59 11 73 35 95 27 26 28 28 12 51 -10 16 -35 31 -66 40 -28 8 -62 24 -77 36
-32 25 -32 25 -66 -5z"/>
<path d="M12190 16790 c-101 -19 -113 -25 -105 -53 5 -16 4 -18 -3 -8 -8 11
-10 11 -15 0 -4 -11 -10 -9 -24 8 -19 23 -136 47 -223 45 -147 -2 -309 -14
-332 -23 -20 -8 -40 -8 -70 -1 -29 7 -58 7 -88 1 -25 -5 -70 -13 -100 -18
-129 -21 -190 -34 -190 -42 0 -13 -56 -39 -85 -39 -20 0 -28 7 -36 30 -13 35
-38 39 -64 10 -28 -31 -95 -25 -95 9 0 9 5 22 11 28 22 22 -1 30 -82 31 -76 0
-83 -1 -103 -25 -12 -14 -38 -44 -59 -65 -21 -22 -51 -63 -67 -92 -17 -29 -43
-65 -60 -79 -32 -29 -33 -45 -8 -128 l10 -36 57 10 c38 7 69 20 96 42 54 43
140 60 216 43 56 -12 109 -43 109 -63 0 -20 64 -74 105 -87 28 -9 45 -23 60
-50 39 -69 78 -109 100 -103 74 23 84 23 136 -1 60 -28 59 -28 59 -11 0 37 56
113 101 137 21 12 83 -3 164 -40 72 -33 121 -43 177 -36 56 7 64 11 143 63
l49 31 -35 7 c-20 4 -54 2 -77 -5 -48 -12 -91 4 -126 47 -10 14 -27 33 -36 42
-10 9 -20 28 -24 44 -8 32 -17 34 -41 7 -14 -16 -31 -20 -80 -20 -57 0 -64 2
-80 27 -10 14 -29 37 -42 49 l-25 23 -25 -29 c-55 -66 -143 -16 -143 81 0 40
4 47 41 73 37 26 43 27 72 15 18 -7 36 -16 41 -20 5 -4 29 14 53 42 41 45 48
49 91 49 25 0 53 -6 61 -14 16 -14 88 -56 96 -56 3 0 5 6 5 13 0 7 14 24 32
37 29 21 45 24 148 27 141 4 160 1 160 -32 0 -13 4 -26 9 -29 12 -8 41 4 41
16 0 24 46 47 93 48 27 0 56 4 66 9 9 5 63 11 118 13 55 2 99 6 96 11 -2 4
-14 7 -26 7 -12 0 -36 8 -52 18 -44 27 -99 31 -195 12z"/>
<path d="M16737 15686 c-8 -19 3 -57 14 -50 14 8 22 -46 10 -72 -14 -31 -15
-94 -1 -94 10 0 37 -20 70 -51 9 -9 31 -23 48 -32 l31 -15 -39 77 c-22 42 -50
114 -64 160 -19 67 -27 85 -44 87 -11 2 -22 -3 -25 -10z"/>
<path d="M16930 15337 c0 -10 7 -20 15 -23 9 -4 15 -19 15 -36 0 -16 11 -57
24 -91 13 -34 26 -78 29 -97 2 -19 10 -62 17 -95 19 -91 6 -256 -25 -321 -13
-28 -31 -57 -40 -64 -8 -7 -15 -16 -15 -21 0 -13 -61 -99 -70 -99 -5 0 -16
-13 -25 -30 -8 -16 -29 -37 -45 -45 -17 -9 -30 -20 -30 -26 0 -6 -12 -23 -27
-38 -74 -71 -146 -157 -199 -236 -15 -22 -54 -71 -86 -109 -32 -39 -58 -77
-58 -86 0 -9 -14 -29 -31 -44 -17 -15 -35 -41 -41 -57 -5 -16 -14 -29 -19 -29
-17 0 -49 -40 -49 -63 0 -13 -9 -26 -22 -32 -12 -6 -35 -27 -51 -47 -23 -29
-30 -47 -29 -78 1 -26 -2 -40 -11 -40 -20 0 -86 -96 -80 -118 2 -11 0 -23 -6
-26 -6 -4 -11 -14 -11 -22 0 -8 -18 -32 -39 -52 -22 -21 -43 -51 -47 -67 -4
-17 -20 -45 -36 -63 -15 -18 -28 -39 -28 -46 0 -7 -11 -23 -25 -36 -14 -14
-25 -35 -25 -50 0 -16 -12 -37 -30 -55 -16 -16 -30 -33 -30 -38 0 -5 -13 -29
-30 -53 -16 -25 -33 -57 -36 -72 -4 -15 -15 -36 -24 -47 -16 -18 -100 -176
-100 -188 0 -2 -18 -37 -41 -78 -23 -41 -59 -110 -81 -154 -22 -44 -44 -87
-49 -95 -5 -8 -57 -112 -116 -230 -59 -118 -111 -217 -115 -220 -4 -3 -19 -30
-33 -60 -14 -30 -41 -77 -60 -105 -19 -27 -35 -56 -35 -63 0 -7 -18 -41 -39
-75 -22 -34 -54 -93 -72 -132 -18 -38 -42 -86 -54 -105 -12 -19 -37 -62 -55
-95 -18 -33 -36 -62 -40 -65 -12 -8 -40 -68 -40 -85 0 -9 -11 -31 -24 -48 -13
-18 -44 -70 -68 -117 -43 -83 -76 -140 -88 -150 -11 -8 -50 -96 -50 -109 0 -7
-13 -30 -29 -50 -15 -20 -30 -41 -32 -47 -4 -12 -87 -109 -128 -150 -18 -18
-24 -36 -26 -84 -3 -56 -10 -78 -64 -190 -21 -44 -70 -130 -91 -159 -11 -16
-20 -33 -20 -39 0 -13 -49 -103 -66 -123 -8 -8 -14 -21 -14 -27 0 -6 -9 -26
-20 -44 -11 -18 -20 -41 -20 -50 0 -9 -11 -30 -25 -46 -14 -17 -25 -35 -25
-41 0 -6 -3 -11 -7 -11 -5 0 -19 -25 -32 -55 -14 -30 -28 -55 -33 -55 -4 0 -8
-4 -8 -9 0 -13 -36 -89 -61 -131 -21 -34 -153 -287 -190 -365 -43 -89 -141
-274 -174 -330 -13 -22 -24 -46 -25 -54 0 -8 -11 -29 -25 -47 -14 -18 -25 -39
-25 -48 0 -8 -5 -18 -11 -21 -5 -4 -14 -17 -20 -28 -5 -12 -13 -29 -18 -37 -5
-8 -29 -55 -52 -105 -23 -49 -48 -97 -54 -105 -7 -8 -15 -28 -19 -44 -4 -17
-16 -42 -26 -56 -19 -27 -74 -133 -290 -555 -114 -224 -288 -562 -317 -617 -8
-15 -18 -30 -24 -33 -5 -4 -9 -14 -9 -24 0 -10 -11 -38 -25 -62 -14 -24 -27
-51 -31 -59 -11 -27 -56 -125 -64 -140 -41 -71 -123 -245 -123 -258 0 -9 -7
-26 -17 -37 -21 -25 -33 -47 -110 -205 -33 -69 -64 -132 -69 -140 -5 -8 -26
-50 -47 -93 -26 -53 -48 -84 -66 -93 -33 -17 -33 -17 -9 55 22 66 41 148 47
211 3 25 9 54 14 65 5 11 14 43 19 70 5 28 17 70 27 95 12 31 19 85 22 178 4
130 5 133 32 156 28 23 28 23 19 101 -4 43 -11 80 -14 83 -3 3 -14 -5 -25 -19
-18 -19 -23 -21 -30 -9 -6 8 -9 24 -9 35 0 11 3 14 6 8 16 -41 21 11 19 204
l-3 217 25 23 25 23 -18 75 c-10 44 -15 88 -11 107 10 50 9 145 -3 166 -5 10
-10 41 -10 68 -2 85 16 307 28 359 8 35 9 70 2 119 -9 65 -3 112 18 126 15 10
20 118 6 130 -17 14 -8 156 11 185 8 11 14 37 14 59 0 21 9 58 21 81 19 38 20
44 6 71 -17 34 -10 60 25 95 22 22 25 37 37 193 12 172 29 235 64 249 8 3 20
25 26 50 8 27 27 57 48 77 32 30 34 37 29 72 -6 34 -3 42 27 72 19 19 45 37
58 41 23 6 54 19 113 46 16 8 31 20 33 29 15 43 38 90 45 90 13 0 98 123 98
142 0 11 11 29 24 41 13 12 25 31 27 42 3 11 17 26 32 33 15 7 27 19 27 26 0
7 14 25 30 41 17 16 30 37 30 47 0 11 11 23 25 28 14 5 25 16 25 24 0 18 51
116 60 116 4 0 18 24 30 53 12 28 34 68 49 87 32 44 61 96 61 113 0 7 9 18 20
25 11 7 20 19 20 28 0 8 4 13 9 9 5 -3 19 8 31 25 23 32 22 36 -20 81 -23 24
-121 93 -154 107 -29 13 -50 28 -130 92 -101 81 -122 96 -160 111 -38 16 -42
15 -86 -7 -25 -12 -64 -25 -87 -28 -23 -2 -51 -10 -62 -15 -11 -6 -33 -11 -50
-11 -16 0 -32 -4 -36 -9 -3 -5 -38 -19 -78 -31 -39 -11 -87 -28 -105 -36 -18
-7 -51 -14 -73 -14 -22 0 -50 -5 -61 -11 -12 -6 -48 -15 -82 -20 -93 -14 -184
-33 -192 -41 -4 -5 -16 -8 -27 -8 -10 0 -33 -6 -50 -14 -59 -26 -117 -46 -133
-46 -8 0 -35 -13 -59 -30 -24 -16 -50 -30 -57 -30 -7 0 -71 -29 -142 -65 -70
-36 -134 -65 -140 -65 -7 0 -25 -13 -40 -29 -15 -15 -45 -34 -66 -41 -21 -7
-58 -30 -80 -51 -43 -40 -80 -51 -80 -23 0 20 126 140 162 155 16 6 28 15 28
20 0 4 17 16 38 25 20 10 45 24 54 32 9 8 68 40 130 71 62 32 122 62 133 68
45 24 163 63 191 63 16 0 47 9 69 20 21 11 55 22 74 25 47 8 113 27 127 36 6
5 37 12 70 15 61 7 118 27 128 43 4 5 25 12 49 16 66 11 138 31 190 54 27 12
55 21 62 21 8 0 34 11 59 24 l46 24 -29 31 c-16 17 -35 31 -41 31 -7 0 -34 13
-59 28 -25 15 -66 36 -91 46 -25 10 -56 23 -70 29 -14 6 -47 18 -75 28 l-50
18 -20 -24 c-11 -13 -42 -31 -70 -40 -27 -10 -57 -23 -66 -31 -8 -8 -23 -14
-32 -14 -9 0 -19 -5 -22 -11 -4 -5 -30 -21 -58 -34 -29 -14 -70 -36 -92 -49
-22 -14 -47 -25 -56 -26 -8 0 -26 -11 -39 -25 -13 -14 -30 -25 -37 -25 -8 0
-26 -6 -41 -14 -15 -8 -59 -21 -97 -30 -67 -14 -146 -38 -190 -56 -11 -5 -54
-21 -95 -36 -41 -15 -86 -35 -99 -46 -13 -10 -29 -18 -36 -18 -7 0 -18 -7 -25
-15 -7 -8 -19 -15 -28 -15 -8 0 -21 -8 -28 -17 -7 -10 -16 -15 -19 -11 -10 10
41 69 85 99 19 13 37 26 40 29 8 8 44 30 60 36 8 3 29 12 45 19 17 7 48 18 70
24 111 28 163 44 193 57 18 8 43 14 56 14 13 0 29 7 36 15 7 8 21 15 31 15 10
0 21 5 24 11 4 5 17 15 28 20 35 15 86 47 135 84 25 19 57 35 71 35 34 0 114
25 118 36 2 5 -69 6 -174 1 -98 -5 -197 -6 -221 -2 -42 6 -43 8 -37 35 6 26 3
30 -22 37 -73 19 -208 2 -260 -33 -15 -10 -48 -21 -73 -25 -50 -8 -189 -58
-211 -75 -8 -6 -25 -15 -38 -19 -29 -9 -103 -62 -174 -126 -29 -25 -57 -48
-64 -50 -30 -10 -108 -98 -129 -146 -13 -30 -31 -56 -39 -60 -9 -3 -23 -20
-32 -37 -9 -17 -27 -42 -40 -56 -13 -14 -32 -34 -43 -46 -11 -12 -20 -27 -20
-33 0 -7 -13 -23 -28 -36 -15 -13 -37 -40 -47 -59 -11 -20 -29 -39 -40 -43
-26 -8 -42 -31 -50 -72 -6 -33 -27 -73 -52 -99 -7 -7 -13 -24 -13 -36 0 -13
-6 -39 -14 -57 -14 -37 -12 -54 12 -81 21 -24 42 -23 42 3 0 12 8 23 20 26 11
3 20 10 20 17 1 6 28 31 62 56 33 25 79 64 102 86 22 23 73 67 112 98 40 31
82 72 95 92 45 66 200 134 229 99 18 -22 23 -297 6 -345 -31 -86 -36 -111 -36
-194 0 -54 -6 -100 -15 -123 -20 -46 -19 -98 1 -128 9 -14 16 -43 16 -65 0
-22 3 -40 9 -40 5 0 9 5 9 10 0 6 4 10 10 10 12 0 50 -82 50 -109 0 -11 5 -23
10 -26 6 -3 10 -33 10 -65 0 -32 -4 -62 -10 -65 -5 -3 -10 -20 -10 -36 0 -35
-21 -46 -55 -31 -36 17 -47 88 -31 198 7 49 12 91 10 93 -7 8 -24 -12 -24 -27
0 -10 -9 -34 -20 -55 -11 -20 -20 -42 -20 -48 0 -7 -14 -41 -30 -76 -16 -34
-30 -70 -30 -77 0 -8 -4 -17 -9 -21 -5 -3 -13 -19 -16 -37 -4 -17 -18 -51 -31
-76 -13 -25 -24 -49 -24 -54 0 -11 -19 -56 -56 -133 -13 -28 -24 -56 -24 -64
0 -7 -6 -27 -14 -44 -7 -18 -22 -59 -32 -92 -10 -33 -24 -67 -31 -76 -7 -8
-13 -28 -13 -44 0 -15 -11 -42 -23 -59 -14 -18 -27 -53 -31 -84 -4 -30 -11
-61 -16 -70 -7 -15 -17 -50 -52 -187 -5 -22 -16 -55 -24 -73 -8 -18 -14 -43
-14 -55 0 -23 -22 -99 -45 -152 -14 -33 -31 -91 -71 -240 -39 -145 -44 -170
-54 -270 -22 -223 -39 -362 -49 -388 -6 -16 -11 -50 -11 -77 0 -27 -5 -61 -12
-77 -6 -15 -15 -55 -19 -88 -5 -33 -15 -98 -23 -145 -38 -226 -56 -387 -56
-495 0 -42 -5 -85 -10 -95 -6 -10 -17 -49 -26 -87 -16 -73 -29 -128 -63 -263
-11 -47 -29 -123 -40 -170 -31 -134 -58 -230 -69 -243 -5 -7 -17 -46 -27 -87
-11 -41 -23 -80 -28 -87 -5 -7 -13 -41 -17 -75 -18 -135 -41 -241 -62 -281
-19 -38 -33 -83 -68 -222 -6 -27 -18 -72 -26 -100 -7 -27 -21 -81 -29 -120 -9
-38 -20 -79 -24 -90 -5 -11 -18 -47 -29 -80 -30 -88 -43 -125 -64 -172 -10
-24 -18 -47 -18 -51 0 -5 -9 -19 -20 -32 -11 -13 -20 -33 -20 -45 0 -13 -7
-28 -15 -35 -8 -7 -15 -18 -15 -26 0 -7 -13 -36 -30 -64 -16 -28 -30 -59 -30
-70 0 -10 -11 -40 -25 -66 -14 -26 -25 -54 -25 -62 0 -8 -13 -40 -30 -71 -67
-128 -170 -344 -170 -357 0 -8 -11 -32 -25 -54 -14 -22 -25 -48 -25 -59 0 -11
-7 -26 -15 -35 -8 -8 -15 -20 -15 -26 0 -13 -28 -66 -47 -91 -7 -8 -14 -35
-14 -60 -2 -39 -33 -116 -60 -144 -5 -5 -9 -22 -9 -38 0 -16 -16 -76 -35 -133
-19 -57 -35 -114 -35 -126 -1 -13 -7 -34 -15 -48 -8 -14 -14 -41 -15 -62 0
-20 -6 -38 -12 -40 -8 -3 -16 -41 -21 -109 -4 -57 -10 -120 -12 -139 -2 -19
-7 -77 -11 -128 -4 -51 -11 -95 -16 -98 -4 -3 -8 -25 -8 -49 0 -24 -5 -56 -12
-72 -6 -15 -13 -41 -14 -58 -6 -89 -14 -133 -28 -159 -8 -16 -18 -55 -21 -85
-4 -31 -13 -76 -22 -101 -34 -100 -62 -235 -62 -304 -1 -37 -8 -60 -27 -88
-31 -44 -44 -48 -44 -13 0 15 -6 25 -14 25 -8 0 -16 6 -19 13 -7 18 33 97 49
97 8 0 14 5 14 10 0 6 7 10 15 10 8 0 15 3 15 8 0 12 -38 41 -44 34 -4 -3 1
12 10 33 20 48 13 99 -18 132 -20 21 -22 32 -19 100 1 43 7 86 13 97 6 11 11
66 10 123 0 82 4 110 19 140 10 20 19 51 19 69 0 17 7 48 15 68 13 31 13 40 0
78 -8 24 -15 57 -15 73 0 17 -4 46 -10 65 -12 43 -7 62 25 76 18 9 25 9 29 0
2 -6 5 -4 5 6 1 9 -4 18 -10 20 -22 7 -21 77 2 124 l23 44 -22 41 c-27 50 -27
59 -2 112 19 38 20 53 14 165 -7 126 -7 128 33 123 17 -2 25 33 14 62 -5 14
-8 98 -6 191 3 134 7 170 21 191 14 22 15 32 5 64 -16 56 -14 110 9 185 12 37
18 71 15 76 -8 12 12 293 27 390 7 41 12 123 12 181 1 58 6 112 11 120 12 16
12 125 1 211 -7 49 -6 59 8 64 13 5 16 21 17 73 1 184 -1 174 30 204 29 27 38
60 19 72 -12 7 -13 48 -3 59 4 4 6 54 4 112 -2 88 0 105 13 110 13 5 16 24 16
108 1 55 7 130 15 166 10 48 11 77 4 109 -7 34 -6 60 6 108 9 35 15 93 14 129
-2 51 1 68 13 75 24 14 28 48 18 155 -8 92 -8 100 11 120 17 18 21 37 22 120
2 93 4 99 23 96 20 -3 20 1 16 82 -3 62 0 99 12 135 19 59 20 81 4 116 -9 21
-9 28 4 38 25 20 48 111 48 190 0 58 5 83 23 118 20 37 23 55 19 115 -3 56 0
77 13 97 9 15 14 31 10 37 -4 6 -4 31 0 56 4 31 11 44 22 44 9 0 14 3 10 6 -3
4 0 13 8 21 18 17 19 55 3 122 -9 40 -9 56 2 78 13 28 18 54 25 128 2 22 10
60 19 84 9 24 16 67 16 96 0 30 3 55 8 57 19 8 52 102 52 148 0 27 4 51 9 54
9 6 8 44 -4 109 -5 25 -3 42 6 53 7 9 16 47 20 85 4 43 12 76 23 87 9 10 16
28 16 39 0 11 7 26 15 33 11 9 16 30 15 64 -1 87 1 100 19 126 18 27 37 108
47 208 4 39 11 62 19 62 16 0 25 23 25 62 0 21 10 39 31 59 30 28 32 35 38
118 4 58 12 96 22 108 16 19 56 129 65 178 6 36 36 118 58 160 9 17 16 37 16
46 0 24 9 28 40 16 38 -15 48 -3 27 32 -22 37 -21 48 3 61 16 9 24 7 42 -10
12 -11 25 -20 30 -20 4 0 7 -6 6 -12 -6 -25 42 -20 75 8 17 15 31 31 29 36 -1
4 5 8 13 8 8 0 15 -9 15 -20 0 -11 5 -20 10 -20 6 0 10 5 10 12 0 6 10 22 22
35 18 19 21 34 20 85 -1 37 -7 67 -16 77 -34 37 -27 416 9 516 8 22 14 59 15
81 0 24 6 47 15 54 8 7 15 21 15 32 0 11 12 50 27 86 15 39 26 83 24 104 -1
21 9 63 25 100 15 36 28 91 31 128 2 36 9 74 13 85 5 11 12 65 14 120 2 55 9
141 15 190 5 50 11 146 12 215 2 79 7 134 16 150 7 14 13 34 13 45 0 47 51
258 85 355 25 69 40 132 44 185 4 44 13 90 19 102 7 12 12 36 12 53 0 27 -2
30 -20 20 -10 -6 -37 -41 -59 -78 -114 -196 -617 -604 -996 -809 -60 -33 -171
-97 -245 -143 -74 -46 -164 -99 -200 -118 -36 -19 -77 -43 -92 -53 -49 -35
-291 -147 -393 -182 -55 -19 -176 -68 -270 -109 -93 -41 -215 -92 -270 -113
-473 -179 -605 -249 -818 -434 -47 -41 -94 -70 -152 -95 -46 -19 -130 -66
-187 -104 -112 -75 -188 -120 -343 -202 -367 -194 -436 -234 -464 -269 -47
-59 -143 -212 -167 -266 -12 -27 -41 -84 -64 -125 -23 -41 -57 -113 -75 -160
-19 -47 -52 -129 -74 -184 -23 -54 -66 -189 -96 -300 -30 -110 -63 -227 -74
-259 -11 -31 -30 -106 -41 -165 -49 -248 -62 -304 -100 -432 -52 -179 -95
-353 -130 -530 -16 -80 -54 -255 -85 -390 -31 -135 -65 -301 -76 -370 -10 -69
-30 -177 -43 -240 -14 -63 -45 -226 -70 -362 -42 -227 -84 -409 -150 -658 -33
-124 -77 -348 -115 -585 -17 -104 -42 -239 -56 -300 -14 -60 -39 -195 -56
-300 -16 -104 -51 -280 -76 -390 -25 -110 -52 -227 -60 -260 -12 -56 -57 -271
-89 -427 -7 -38 -34 -141 -60 -230 -65 -230 -83 -296 -94 -352 -12 -58 -72
-245 -130 -406 -23 -63 -75 -209 -114 -325 -40 -115 -89 -248 -110 -295 -60
-134 -196 -505 -196 -533 0 -12 -16 -54 -144 -382 -81 -207 -96 -261 -176
-615 -12 -52 -28 -121 -36 -152 -8 -32 -14 -62 -14 -68 0 -7 891 -10 2735 -10
l2736 0 -11 21 c-7 11 -9 23 -6 26 3 3 1 15 -5 25 -8 16 -7 24 4 35 22 23 40
6 33 -30 -4 -19 -1 -39 9 -54 l15 -23 501 0 501 0 -16 25 c-9 13 -16 32 -16
42 0 10 -13 45 -29 78 -17 33 -38 78 -47 100 -9 22 -20 42 -23 45 -5 5 -29 51
-45 90 -7 15 -12 23 -54 90 -12 19 -22 49 -22 66 0 17 -9 43 -20 57 -11 14
-20 32 -20 40 0 9 -4 19 -10 22 -5 3 -10 13 -10 22 0 8 -8 27 -19 41 -25 37
-56 181 -42 195 15 15 23 5 65 -79 19 -39 42 -77 51 -84 10 -8 15 -30 15 -62
0 -42 4 -54 25 -70 14 -11 25 -30 25 -43 0 -12 7 -28 15 -35 8 -7 15 -18 15
-25 0 -6 9 -22 20 -35 11 -13 20 -27 20 -32 0 -4 23 -55 50 -113 28 -58 50
-118 50 -135 0 -21 8 -36 30 -52 19 -14 30 -31 30 -46 0 -13 14 -42 31 -63
l31 -39 8644 0 8644 0 -3 1988 -2 1987 -27 67 c-15 37 -45 104 -67 150 -49
104 -101 258 -153 458 -22 85 -61 232 -85 325 -25 94 -53 202 -63 240 -10 39
-27 102 -39 140 -11 39 -28 97 -36 130 -9 33 -23 84 -32 114 -8 30 -19 79 -23
110 -5 31 -18 97 -29 146 -25 107 -34 158 -60 330 -11 72 -29 189 -40 260 -21
136 -22 145 -46 499 -9 120 -18 222 -20 226 -3 5 -10 97 -15 207 -14 286 -51
562 -87 663 -9 25 -53 133 -98 240 -46 107 -99 238 -119 290 -20 52 -52 124
-71 160 -19 36 -51 99 -71 140 -20 41 -58 120 -85 175 -129 266 -390 651 -573
845 -39 42 -120 131 -181 199 -120 135 -281 293 -433 425 -53 47 -187 164
-297 261 -110 97 -290 245 -400 330 -110 84 -231 178 -270 209 -110 88 -172
116 -770 349 -142 56 -413 177 -625 279 -302 147 -353 171 -530 246 -91 38
-199 77 -242 86 -55 12 -91 28 -130 55 -78 55 -261 150 -443 229 -88 38 -216
94 -285 125 -121 53 -254 110 -565 244 -82 36 -179 77 -215 93 -36 15 -101 44
-144 64 -44 21 -109 44 -145 52 -36 8 -106 35 -156 59 -49 24 -189 80 -310
125 -419 156 -388 141 -615 288 -92 59 -201 142 -314 237 -74 62 -178 147
-281 229 -33 26 -86 73 -118 104 -78 75 -260 318 -309 412 -21 41 -61 98 -87
125 -27 28 -99 115 -162 195 -104 134 -152 216 -190 322 -15 44 -99 132 -99
105z m-4083 -4470 c7 -25 14 -31 31 -30 63 7 -27 -35 -113 -53 -108 -22 -160
-36 -169 -45 -6 -5 -50 -9 -98 -9 -53 0 -102 -6 -122 -14 -18 -8 -81 -17 -140
-21 -58 -4 -109 -11 -112 -16 -3 -5 -17 -9 -31 -9 -13 0 -37 -6 -51 -14 -31
-15 -71 -29 -162 -57 -36 -11 -87 -29 -115 -41 -27 -11 -63 -23 -80 -26 -16
-2 -39 -11 -50 -18 -11 -8 -25 -14 -32 -14 -7 0 -41 -17 -76 -39 -35 -21 -73
-42 -85 -45 -30 -10 -110 -55 -117 -67 -4 -5 -15 -9 -25 -9 -10 0 -38 -18 -62
-40 -23 -21 -55 -42 -69 -45 -15 -3 -35 -15 -45 -26 -16 -18 -44 -26 -44 -13
0 26 46 76 134 149 27 22 58 48 68 58 10 9 21 17 24 17 3 0 23 14 44 30 21 17
41 30 45 30 3 0 21 11 39 25 18 14 40 25 48 25 9 0 21 7 28 15 7 8 18 15 25
15 7 0 26 7 41 15 16 8 37 15 47 15 10 0 53 18 95 39 42 22 105 49 140 60 34
12 70 25 80 30 46 24 166 46 321 61 58 5 123 17 145 25 23 9 57 17 76 20 40 4
92 17 133 34 16 6 52 12 80 12 29 1 66 4 82 8 45 10 62 3 72 -32z m-113 -708
c14 -13 -59 -40 -134 -50 -36 -5 -72 -12 -80 -15 -22 -8 -192 -23 -365 -33
-143 -8 -210 -19 -264 -45 -13 -6 -62 -11 -108 -11 -66 1 -87 4 -100 19 -17
16 -17 18 6 37 18 15 39 19 91 19 37 0 83 7 103 15 19 8 37 12 40 9 3 -3 38
-1 79 5 40 5 152 19 248 31 96 12 195 25 220 29 54 10 251 2 264 -10z m-1052
-449 c26 -52 52 -100 58 -107 5 -7 10 -26 10 -43 0 -19 10 -41 25 -57 22 -24
42 -76 33 -86 -2 -2 17 -28 42 -58 25 -30 59 -72 75 -94 16 -22 31 -42 34 -45
39 -35 69 -135 57 -186 -11 -44 -44 -30 -71 30 -14 30 -25 59 -25 64 0 14 -60
131 -71 137 -5 4 -21 31 -36 61 -15 30 -37 67 -50 80 -13 14 -29 43 -35 64 -7
22 -20 41 -30 43 -10 3 -18 14 -18 27 0 12 -19 58 -42 103 -57 113 -58 114
-58 136 0 20 15 31 40 28 8 -1 35 -45 62 -97z m-444 -682 c7 -7 12 -20 12 -30
0 -9 17 -34 39 -55 34 -34 101 -150 101 -177 0 -6 14 -29 30 -50 17 -22 30
-43 30 -48 0 -4 18 -37 40 -73 22 -36 40 -67 40 -69 0 -3 16 -31 115 -211 54
-97 161 -258 194 -290 17 -16 31 -37 31 -46 0 -9 7 -22 15 -29 20 -17 21 -172
1 -189 -20 -17 -60 19 -91 82 -14 28 -42 75 -62 102 -64 87 -173 286 -173 315
0 13 -10 24 -25 30 -15 6 -25 17 -25 29 0 10 -7 24 -15 31 -8 7 -15 16 -15 21
0 5 -11 26 -23 47 -13 20 -39 64 -57 97 -18 33 -40 69 -50 80 -21 25 -102 171
-159 288 -43 89 -48 130 -18 149 18 12 52 9 65 -4z m-140 -366 c11 -21 30 -46
41 -56 11 -10 23 -32 27 -49 3 -17 17 -39 30 -49 12 -10 26 -29 30 -41 3 -12
17 -36 30 -54 13 -17 24 -36 24 -41 0 -5 14 -26 30 -47 17 -21 30 -47 30 -58
0 -11 7 -28 15 -37 8 -9 28 -42 44 -72 15 -31 38 -69 49 -86 12 -16 22 -37 22
-45 0 -9 16 -36 35 -61 38 -50 135 -202 135 -212 0 -3 12 -23 28 -43 15 -20
36 -53 46 -74 11 -20 37 -56 58 -80 21 -23 59 -72 84 -109 l47 -67 1 -100 c0
-60 -3 -102 -9 -104 -14 -5 -55 23 -55 38 0 6 -9 20 -20 30 -11 10 -22 27 -26
39 -9 27 -129 211 -154 234 -10 9 -21 28 -25 42 -3 14 -21 41 -39 60 -17 19
-53 73 -79 120 -26 47 -58 104 -72 128 -14 23 -25 49 -25 56 0 8 -3 16 -8 18
-11 5 -72 100 -72 113 0 6 -13 24 -30 40 -16 16 -30 34 -30 39 0 16 -61 136
-88 173 -12 17 -22 36 -22 43 0 6 -9 23 -20 37 -11 14 -20 38 -20 54 0 16 -9
37 -21 48 -18 17 -20 27 -15 84 4 48 1 68 -8 77 -8 6 -16 20 -19 30 -9 36 28
22 51 -18z m-214 -1017 c4 -19 18 -48 32 -64 14 -16 32 -49 40 -73 8 -24 33
-68 55 -98 21 -30 47 -71 57 -90 9 -19 27 -49 40 -67 13 -18 22 -46 22 -67 0
-24 5 -36 14 -36 21 0 36 -25 40 -65 2 -23 14 -47 33 -68 27 -29 90 -119 150
-216 12 -20 22 -44 23 -53 0 -10 9 -23 20 -30 12 -7 38 -44 59 -83 59 -109 62
-115 118 -201 29 -45 53 -87 53 -94 0 -8 6 -21 14 -29 8 -9 26 -40 41 -69 15
-29 40 -68 56 -86 16 -19 29 -38 29 -44 0 -6 11 -28 25 -48 20 -30 25 -49 25
-100 0 -45 -4 -64 -13 -64 -21 0 -57 30 -57 48 -1 9 -9 31 -18 49 -9 17 -31
60 -48 95 -18 35 -41 72 -53 82 -11 11 -21 25 -21 33 0 7 -3 13 -8 13 -4 0
-16 17 -27 38 -10 20 -24 44 -31 52 -7 8 -33 55 -59 104 -26 49 -54 96 -62
105 -9 8 -22 29 -29 46 -7 16 -21 39 -31 50 -16 18 -63 105 -63 118 0 3 -17
34 -38 68 -21 35 -48 84 -61 109 -12 25 -39 77 -61 115 -22 39 -52 95 -69 125
-16 30 -39 65 -50 77 -12 12 -21 27 -21 33 0 6 -14 39 -32 73 -32 64 -112 242
-130 290 -12 32 -5 57 16 57 8 0 16 -14 20 -35z m-624 -1710 c0 -4 10 -21 22
-38 15 -21 18 -32 10 -35 -19 -6 -14 -22 7 -22 14 0 24 -14 37 -50 10 -27 21
-50 25 -50 3 0 17 -28 30 -62 12 -35 33 -76 45 -93 12 -16 32 -54 43 -83 12
-29 30 -63 42 -75 11 -12 26 -35 33 -52 8 -16 27 -46 45 -65 17 -19 34 -44 37
-55 4 -11 23 -45 44 -76 28 -42 38 -70 43 -112 5 -53 4 -57 -15 -57 -25 0 -86
64 -95 100 -8 30 -44 90 -67 109 -9 7 -16 21 -16 31 0 10 -7 23 -15 30 -8 7
-15 16 -15 20 0 5 -18 40 -40 79 -22 39 -40 80 -40 91 0 11 -4 20 -9 20 -4 0
-16 21 -25 48 -10 26 -22 55 -27 65 -53 98 -67 126 -74 147 -4 14 -18 47 -31
74 -13 27 -27 70 -30 95 -3 25 -10 50 -15 56 -5 5 -9 14 -9 20 0 5 14 -4 30
-22 17 -18 30 -35 30 -38z m-233 -1080 c33 -17 113 -98 113 -115 0 -6 17 -36
38 -67 53 -79 80 -123 96 -158 8 -17 24 -39 35 -49 12 -11 21 -23 21 -28 0 -4
11 -31 25 -60 14 -28 25 -63 25 -77 0 -14 4 -42 9 -61 5 -19 11 -56 14 -82 3
-41 1 -48 -14 -48 -9 0 -27 15 -38 34 -12 18 -31 44 -44 57 -13 13 -29 40 -36
61 -7 20 -23 48 -37 63 -14 15 -36 51 -49 79 -13 28 -35 62 -49 75 -14 14 -26
35 -26 47 0 24 -30 84 -42 84 -5 0 -8 6 -8 13 0 8 -11 24 -24 36 -17 16 -25
37 -29 82 -4 32 -14 70 -23 84 -15 23 -12 45 5 45 4 0 22 -7 38 -15z m812 -46
c6 -20 25 -49 41 -65 16 -16 30 -34 30 -40 0 -6 14 -30 30 -52 17 -23 30 -51
30 -61 0 -11 20 -41 45 -68 24 -26 45 -54 45 -61 0 -12 49 -91 90 -144 11 -14
20 -34 20 -43 0 -9 11 -30 25 -47 14 -16 25 -35 25 -43 0 -7 7 -18 15 -25 8
-7 15 -21 15 -30 0 -22 -31 -80 -43 -80 -16 0 -55 51 -60 79 -3 15 -17 42 -31
59 -15 16 -26 35 -26 42 0 7 -13 29 -30 50 -16 20 -41 61 -56 91 -15 30 -40
70 -56 89 -15 19 -28 43 -28 52 0 10 -18 45 -40 77 -22 32 -40 69 -40 82 0 14
-7 34 -15 45 -8 12 -12 24 -9 26 2 3 -2 11 -11 18 -8 7 -15 23 -15 36 0 12 -5
26 -11 30 -7 4 -2 11 13 19 28 14 32 11 47 -36z m-973 -187 c7 -4 19 -27 27
-52 21 -61 44 -105 89 -171 21 -31 38 -62 38 -70 0 -7 9 -22 19 -33 19 -21 48
-66 76 -121 8 -17 29 -46 45 -64 17 -18 30 -38 30 -46 0 -8 4 -16 9 -20 6 -3
16 -18 24 -33 7 -15 30 -58 50 -97 l36 -70 -16 -57 c-19 -69 -45 -79 -68 -25
-7 18 -23 41 -34 51 -12 11 -21 24 -21 31 0 6 -12 27 -26 46 -14 19 -43 70
-65 113 -22 44 -51 90 -64 102 -14 13 -27 39 -31 63 -3 22 -13 42 -20 45 -8 3
-14 18 -14 33 0 15 -6 40 -14 54 -7 14 -16 36 -19 50 -4 13 -20 40 -37 59 -25
28 -30 41 -25 66 4 22 0 38 -14 56 -17 21 -19 31 -10 62 10 37 16 41 35 28z
m616 -704 c8 -11 25 -22 39 -23 16 -1 29 -11 40 -33 9 -17 28 -47 43 -67 15
-19 35 -52 44 -73 9 -21 27 -48 40 -62 12 -13 22 -36 22 -52 0 -16 7 -31 18
-37 11 -6 34 -40 53 -76 18 -36 36 -65 40 -65 3 0 18 -23 33 -51 26 -51 34
-113 16 -124 -5 -3 -10 -14 -10 -24 0 -29 -23 -43 -54 -31 -17 6 -26 17 -26
31 0 13 -6 30 -14 38 -18 20 -58 90 -92 159 -14 28 -30 52 -34 52 -12 0 -40
54 -40 77 0 10 -13 31 -30 46 -16 16 -30 38 -30 50 0 12 -11 42 -24 67 -13 25
-26 62 -30 82 -4 20 -11 38 -17 40 -11 4 -30 78 -23 90 9 14 21 9 36 -14z
m-847 -384 c28 -54 59 -111 69 -127 12 -18 17 -37 13 -56 -5 -23 -1 -32 22
-49 25 -18 68 -88 166 -267 15 -27 33 -57 40 -65 7 -8 27 -45 44 -82 17 -37
35 -69 40 -72 14 -9 51 -85 51 -104 0 -38 34 -158 50 -177 10 -11 21 -36 25
-55 4 -19 18 -55 30 -80 12 -25 28 -63 35 -85 7 -22 19 -49 26 -60 8 -11 14
-30 14 -42 0 -13 6 -23 13 -23 8 0 28 -20 46 -45 26 -37 32 -53 29 -87 -3 -38
-6 -43 -30 -46 -22 -3 -28 2 -39 35 -7 21 -14 48 -15 60 -1 12 -21 59 -44 105
-23 45 -51 111 -61 145 -11 34 -23 65 -28 67 -5 3 -12 26 -15 50 -4 25 -18 60
-30 79 -13 19 -29 50 -35 69 -7 20 -21 44 -31 53 -11 10 -20 22 -20 28 0 5
-10 23 -22 39 -11 17 -38 66 -59 109 -21 44 -42 79 -47 79 -5 0 -15 20 -22 44
-7 25 -21 53 -31 62 -11 9 -19 25 -19 36 0 10 -4 18 -10 18 -5 0 -10 6 -10 13
0 7 -11 28 -23 47 -13 19 -31 57 -40 84 -10 28 -25 59 -36 70 -10 12 -21 40
-24 64 -5 41 -13 57 -57 112 -11 14 -21 41 -24 60 -2 19 -7 50 -12 69 -14 63
19 29 71 -75z m751 12 c3 -13 17 -34 30 -47 13 -12 24 -28 24 -35 0 -6 7 -17
16 -24 8 -8 30 -45 49 -84 18 -39 42 -80 52 -91 10 -11 30 -42 43 -70 13 -27
39 -73 57 -102 18 -29 33 -59 33 -68 0 -9 7 -18 15 -21 17 -7 21 -79 5 -89 -5
-3 -10 -17 -10 -30 0 -61 -33 -74 -55 -22 -7 18 -23 41 -34 51 -12 11 -21 27
-21 36 0 19 -74 166 -96 191 -8 8 -14 20 -14 26 0 6 -7 24 -15 40 -44 83 -89
207 -100 274 -4 24 -12 49 -17 56 -5 7 -7 17 -3 23 11 18 34 11 41 -14z
m-1502 -1598 c9 -12 16 -30 16 -39 0 -9 7 -19 15 -23 8 -3 15 -10 15 -16 0 -5
14 -29 30 -52 17 -22 30 -46 30 -52 0 -6 18 -42 40 -80 22 -38 40 -81 40 -98
0 -16 9 -43 21 -59 11 -16 20 -39 19 -52 -3 -37 -1 -47 12 -45 7 2 33 -37 59
-86 35 -65 47 -96 43 -115 -4 -18 0 -32 10 -40 22 -18 20 -31 -4 -31 -12 0
-27 14 -40 38 -12 20 -30 52 -42 71 -18 28 -20 38 -10 63 9 25 9 28 -3 18 -12
-10 -17 -7 -25 15 -6 15 -21 42 -33 59 -12 17 -32 51 -44 76 -13 25 -32 59
-43 75 -30 45 -80 143 -80 155 0 7 -17 42 -38 78 -33 58 -38 73 -34 115 4 52
21 61 46 25z m-224 -1163 c5 -13 21 -43 36 -66 14 -23 34 -65 44 -94 10 -29
29 -70 43 -92 36 -57 57 -110 57 -146 0 -19 9 -38 26 -54 22 -20 25 -31 21
-61 -2 -20 -1 -48 2 -62 7 -25 -5 -70 -19 -70 -4 0 -13 13 -19 29 -7 15 -28
43 -47 62 -26 25 -34 41 -34 69 0 25 -9 46 -30 72 -17 20 -42 63 -56 95 -14
32 -30 67 -34 78 -28 63 -38 164 -24 234 8 37 21 40 34 6z"/>
<path d="M15860 14197 c-95 -51 -132 -75 -173 -113 -7 -5 -37 -23 -67 -40 -30
-16 -59 -35 -63 -41 -4 -7 -15 -13 -22 -13 -8 0 -15 -4 -15 -8 0 -18 -57 -71
-85 -78 -33 -8 -156 -105 -149 -116 11 -18 45 -6 66 22 16 22 30 30 52 30 23
0 36 8 50 29 11 16 38 38 59 49 22 11 44 31 51 43 7 15 22 25 39 27 15 2 32
11 39 21 7 10 28 26 46 35 18 9 38 28 44 41 6 14 20 25 31 25 28 0 83 36 108
71 23 33 23 34 -11 16z"/>
<path d="M15109 13707 c-31 -18 -84 -53 -117 -79 -33 -27 -65 -48 -70 -48 -15
0 -176 -131 -186 -151 -5 -11 -27 -24 -52 -30 -25 -7 -61 -28 -90 -55 -27 -24
-54 -44 -61 -44 -6 0 -18 -8 -25 -18 -13 -17 -117 -83 -150 -95 -10 -3 -32
-29 -49 -57 -17 -27 -37 -50 -45 -50 -8 0 -22 -4 -32 -9 -9 -6 -28 -12 -42
-15 -28 -6 -78 -40 -137 -94 -27 -24 -39 -29 -45 -20 -5 8 -8 9 -8 2 0 -7 -11
-19 -25 -28 -23 -15 -27 -15 -40 -2 -13 13 -13 15 4 21 16 5 18 13 14 48 -8
59 -17 64 -50 29 -23 -25 -41 -33 -98 -43 -64 -12 -161 -55 -193 -86 -7 -7
-26 -13 -41 -13 -41 0 -43 -9 -10 -43 23 -23 42 -31 79 -35 48 -4 51 -3 98 44
27 27 61 59 76 72 32 26 69 30 60 7 -4 -8 -10 -12 -15 -9 -5 3 -17 0 -26 -5
-15 -9 -14 -10 11 -11 l29 0 -24 -24 c-13 -12 -34 -28 -46 -35 -13 -6 -23 -18
-23 -26 0 -8 -5 -26 -12 -40 -9 -20 -18 -25 -49 -25 -28 0 -39 -5 -44 -19 -3
-11 -24 -36 -46 -56 -24 -22 -38 -42 -35 -51 8 -21 30 -17 54 11 12 14 36 28
52 31 16 4 35 13 41 20 6 8 16 14 21 14 5 0 20 13 34 29 13 16 37 32 53 36 29
6 47 18 108 69 19 16 56 39 81 51 43 20 74 44 159 126 18 17 31 36 30 42 -1 6
5 11 13 12 8 0 26 6 40 12 14 6 38 14 53 18 16 3 53 30 83 60 30 31 63 55 74
55 12 0 25 10 32 25 6 14 32 35 57 47 52 25 91 63 91 88 0 12 16 22 55 35 30
9 70 27 89 40 19 13 44 26 56 30 27 9 110 64 110 73 0 4 21 20 46 36 26 16 60
42 77 58 18 15 37 28 44 28 16 0 73 62 67 72 -10 16 -50 6 -105 -25z"/>
</g>
</svg>
