<?xml version="1.0" standalone="no"?>
<!DOCTYPE svg PUBLIC "-//W3C//DTD SVG 20010904//EN"
 "http://www.w3.org/TR/2001/REC-SVG-20010904/DTD/svg10.dtd">
<svg version="1.0" xmlns="http://www.w3.org/2000/svg"
 width="528.000000pt" height="528.000000pt" viewBox="0 0 528.000000 528.000000"
 preserveAspectRatio="xMidYMid meet">
<metadata>
Created by potrace 1.15, written by Peter Selinger 2001-2017
</metadata>
<g transform="translate(0.000000,528.000000) scale(0.100000,-0.100000)"
fill="#000000" stroke="none">
<path d="M3777 4664 c-3 -3 -20 -7 -38 -9 -48 -6 -68 -10 -74 -17 -3 -3 -26
-3 -50 0 -29 3 -45 1 -45 -6 0 -14 -52 -42 -77 -42 -10 -1 -40 -21 -67 -45
-28 -25 -53 -45 -57 -45 -4 0 -24 -28 -45 -62 -21 -35 -46 -74 -56 -87 -24
-31 -23 -38 7 -45 26 -7 30 -4 90 67 30 34 70 58 87 52 9 -4 22 0 29 7 8 8 21
17 29 21 8 4 35 18 59 32 24 14 55 25 68 25 15 0 27 9 35 25 10 22 13 23 20
10 5 -8 22 -15 39 -15 19 0 47 -13 76 -35 25 -19 54 -35 63 -35 9 0 31 -13 48
-30 17 -16 34 -25 37 -20 9 15 62 -26 92 -72 17 -25 31 -37 41 -33 19 7 42
-12 42 -35 0 -10 7 -20 15 -24 8 -3 14 -13 13 -23 -4 -47 1 -53 41 -53 23 0
41 5 44 13 2 7 13 -3 25 -23 21 -33 27 -29 23 13 -3 25 18 21 28 -5 8 -21 10
-18 22 25 13 45 29 63 29 32 0 -8 4 -15 8 -15 18 0 20 12 6 38 -18 36 -18 72
1 72 8 0 15 -6 16 -12 0 -7 5 0 9 16 7 23 5 32 -16 53 -18 18 -32 23 -48 19
-17 -4 -26 -1 -30 10 -5 13 -1 15 19 10 31 -8 34 13 6 38 -15 13 -20 14 -24 4
-3 -7 -6 -3 -6 10 -1 12 -9 26 -18 29 -10 4 -22 12 -26 20 -4 7 -13 13 -19 13
-6 0 -18 8 -27 19 -9 10 -26 21 -38 25 -13 4 -23 11 -23 16 0 5 -15 12 -32 15
-18 4 -37 11 -43 15 -20 15 -111 31 -199 36 -49 3 -93 7 -97 9 -3 3 -9 2 -12
-1z"/>
<path d="M2310 4651 c-74 -5 -108 -13 -152 -35 -53 -25 -74 -46 -47 -46 6 0
-3 -11 -20 -25 -16 -14 -32 -34 -36 -43 -3 -10 -21 -24 -40 -31 -26 -9 -40
-23 -51 -49 -8 -20 -24 -45 -35 -55 -14 -14 -19 -26 -15 -43 4 -13 3 -24 -2
-24 -12 0 -35 -87 -29 -110 3 -10 1 -20 -4 -22 -6 -2 -3 -12 5 -23 15 -20 15
-20 16 0 0 17 2 18 11 5 8 -12 9 -11 5 5 -4 15 3 26 27 43 29 19 39 21 82 13
27 -5 51 -14 53 -20 2 -6 10 -11 17 -11 8 0 19 -9 25 -20 6 -11 17 -20 25 -20
8 0 32 -16 54 -35 34 -31 81 -49 66 -26 -3 5 3 12 14 16 23 7 71 -13 71 -31 0
-6 7 -15 16 -18 14 -5 16 -17 12 -69 -3 -34 -3 -68 -1 -74 6 -16 25 -17 41 -1
7 7 33 13 60 13 26 1 65 8 87 14 22 7 66 16 97 20 l57 7 6 -33 c6 -34 -10 -74
-46 -118 -10 -11 -19 -36 -21 -55 -3 -33 -1 -35 32 -41 21 -4 26 -7 13 -8 -13
0 -30 -12 -39 -26 -9 -14 -26 -25 -38 -25 -23 0 -56 -21 -100 -63 -24 -22 -30
-38 -34 -82 -4 -54 1 -86 39 -213 20 -68 17 -84 -24 -129 -16 -19 -18 -25 -7
-38 7 -8 19 -15 27 -15 8 0 11 -4 8 -10 -3 -5 -24 -10 -46 -10 -41 0 -51 -12
-21 -29 14 -9 13 -10 -11 -11 -16 0 -30 7 -33 15 -4 8 -18 15 -33 14 l-26 -1
28 -10 c15 -5 27 -13 27 -18 0 -5 9 -12 21 -15 11 -4 34 -20 51 -37 27 -26 36
-30 70 -25 57 8 80 -1 72 -27 -10 -36 -40 -53 -109 -61 l-66 -7 -90 61 c-50
34 -94 61 -99 61 -5 0 -14 8 -19 18 -7 11 -10 12 -11 3 0 -17 -58 -8 -115 19
-48 22 -228 86 -270 95 l-30 7 38 -28 c24 -17 37 -35 37 -50 0 -27 -25 -54
-50 -54 -10 0 -22 -4 -25 -10 -3 -5 -15 -10 -26 -10 -32 0 -20 -20 61 -111
208 -229 384 -376 538 -446 31 -14 95 -43 141 -65 95 -45 99 -45 246 -5 53 15
135 28 199 32 l108 7 32 -31 c17 -17 49 -37 71 -44 21 -7 44 -22 49 -33 16
-28 23 -31 100 -43 68 -10 75 -9 168 23 53 18 124 52 158 75 34 22 69 41 76
41 8 0 14 3 14 8 0 4 16 12 36 18 44 14 163 -11 144 -30 -8 -8 -14 -7 -21 4
-9 12 -10 12 -5 -3 3 -10 6 -25 6 -32 0 -21 64 -28 106 -10 28 12 35 19 31 35
-3 14 5 27 28 45 19 14 38 25 43 25 5 0 15 12 23 26 18 35 115 131 140 139 10
4 19 10 19 15 0 5 13 24 28 42 16 18 32 40 36 48 4 8 13 26 21 40 8 14 12 33
9 44 -11 34 -78 89 -124 102 -25 7 -36 13 -25 14 12 1 6 5 -15 10 -19 5 -37 5
-40 2 -3 -4 -18 -13 -33 -20 -15 -6 -32 -22 -38 -34 -7 -18 -8 -11 -4 27 3 28
13 61 23 75 22 29 35 87 22 95 -5 3 -15 -4 -23 -16 -14 -19 -15 -12 -14 83 2
76 -2 109 -12 121 -19 24 -31 21 -31 -8 0 -18 -7 -28 -25 -35 -14 -5 -29 -20
-34 -33 -5 -13 -21 -31 -34 -40 -25 -16 -27 -16 -44 7 -14 17 -18 35 -15 65 2
22 8 41 13 41 5 0 9 8 9 18 0 10 9 28 21 40 11 12 18 26 15 31 -6 9 51 6 85
-4 11 -4 19 -2 19 4 0 6 -6 11 -12 12 -7 0 9 6 37 14 27 7 53 11 57 8 5 -2 8
3 8 11 0 9 -11 23 -25 32 -28 18 -33 44 -10 44 8 0 15 -5 15 -11 0 -11 32 -42
63 -60 16 -9 18 -8 12 10 -5 17 -2 21 14 21 24 0 25 7 11 46 -10 25 -11 26
-24 9 -13 -18 -14 -18 -20 3 -4 13 -5 35 -2 50 4 18 0 35 -13 51 l-18 24 -22
-22 c-21 -21 -25 -21 -64 -8 -44 14 -61 42 -30 50 15 4 14 5 -3 6 -12 0 -27 8
-34 16 -7 8 -19 15 -26 15 -8 0 -14 10 -14 23 0 21 -4 23 -37 19 -21 -2 -46
-11 -56 -20 -9 -8 -27 -20 -39 -26 -18 -10 -98 -145 -98 -167 0 -5 7 -9 15 -9
9 0 19 -8 22 -17 4 -10 13 -24 21 -32 10 -11 12 -28 8 -62 -4 -29 -2 -50 4
-54 11 -7 14 -45 3 -44 -24 2 -70 39 -84 67 -16 31 -29 33 -29 3 0 -20 -46
-71 -65 -71 -7 0 -16 -9 -20 -19 -3 -11 -15 -23 -26 -26 -16 -5 -19 -14 -17
-38 2 -26 7 -32 27 -32 13 0 25 6 27 13 1 7 0 8 -3 2 -2 -5 -9 -10 -14 -10
-16 0 -10 22 13 41 20 18 22 18 32 2 7 -10 18 -36 25 -57 12 -34 12 -41 -2
-50 -8 -7 -16 -20 -18 -31 -4 -17 -14 -20 -61 -22 -31 -2 -60 1 -63 7 -3 5
-14 10 -23 10 -9 0 -30 12 -46 26 -23 20 -27 31 -22 55 5 28 -6 40 -19 19 -10
-17 -25 -11 -25 9 0 20 -18 31 -51 31 -10 0 -17 6 -15 13 1 6 1 9 -1 5 -3 -5
-20 -8 -38 -8 -38 0 -65 -28 -65 -68 0 -13 -6 -35 -14 -50 -21 -42 -30 -104
-15 -112 14 -9 5 -40 -11 -40 -6 0 -9 4 -5 9 3 5 1 12 -5 16 -5 3 -10 1 -10
-4 0 -12 -29 -14 -54 -5 -9 3 -16 16 -17 28 0 19 -1 19 -8 3 -6 -17 -8 -17
-20 -3 -7 8 -14 28 -15 43 -4 48 -18 92 -32 104 -7 6 -11 16 -8 24 3 7 1 16
-5 19 -6 4 -7 14 -4 23 4 10 2 14 -5 10 -19 -12 -20 139 -1 189 12 31 15 54 9
78 -4 19 -5 38 -1 42 3 4 0 4 -7 0 -7 -5 -11 -14 -9 -21 3 -6 -2 -19 -11 -28
-23 -22 -38 -40 -45 -57 -14 -34 16 199 42 320 23 111 39 255 30 273 -4 7 -9
29 -12 50 -3 20 -10 44 -17 52 -7 9 -10 29 -7 48 8 50 -42 203 -73 222 -5 3
-10 13 -10 21 0 21 -87 121 -126 145 -17 10 -39 19 -49 19 -9 0 -26 12 -38 26
-16 21 -26 25 -50 20 -22 -5 -36 -1 -51 13 -25 23 -147 32 -296 22z m508
-1242 c4 -62 -43 -139 -81 -131 -26 5 -130 65 -134 78 -2 6 6 23 17 37 16 20
31 27 58 27 20 1 50 6 65 13 16 7 38 13 50 13 19 1 22 -4 25 -37z m614 -284
c42 -27 79 -59 83 -70 4 -13 8 -16 12 -7 9 23 23 12 17 -13 -3 -14 -2 -25 2
-25 5 -1 19 -9 32 -19 23 -20 21 -56 -4 -47 -7 3 -16 1 -19 -4 -10 -16 -25
-11 -25 7 0 14 -3 13 -16 -5 -9 -13 -26 -22 -40 -22 -44 0 -62 -17 -70 -65 -4
-32 -2 -50 7 -62 13 -15 11 -16 -16 -9 -16 4 -37 14 -46 22 -11 10 -23 12 -40
6 -33 -12 -59 -4 -59 18 0 10 -9 20 -19 23 -18 4 -19 9 -9 41 6 20 17 36 23
36 7 0 18 7 25 15 10 12 10 15 0 15 -8 0 -11 9 -7 29 5 21 2 31 -10 35 -13 6
-13 9 6 25 11 10 21 22 21 27 0 14 41 88 54 96 13 9 5 13 98 -47z"/>
<path d="M3185 4170 c-3 -5 -1 -26 4 -47 12 -42 6 -58 -8 -22 -6 16 -10 18
-10 8 -1 -9 -7 -19 -14 -22 -19 -7 -40 -106 -27 -122 8 -9 8 -15 0 -20 -6 -3
-8 -10 -5 -15 3 -5 -1 -15 -8 -22 -14 -13 -21 -41 -33 -126 -4 -23 -11 -45
-15 -48 -12 -7 -11 -114 0 -114 17 0 23 20 11 35 -6 7 -7 16 -2 19 5 3 12 28
16 55 3 27 12 54 20 60 8 7 14 33 14 66 0 37 6 60 17 71 8 9 13 24 10 34 -3 9
1 23 10 30 8 7 15 25 15 41 0 17 5 29 13 29 14 0 41 86 31 101 -4 6 -11 6 -20
-2 -12 -10 -13 -9 -8 5 7 17 -1 22 -11 6z"/>
<path d="M4241 4135 c-1 -18 -9 -37 -21 -45 -14 -10 -20 -26 -20 -52 0 -31 -4
-38 -20 -38 -12 0 -20 -7 -20 -18 0 -10 -7 -27 -14 -38 -13 -18 -13 -27 -1
-67 16 -53 3 -117 -24 -117 -12 0 -11 -4 6 -21 29 -29 45 -16 41 34 -3 35 1
43 22 54 14 7 21 13 17 13 -5 0 3 14 18 31 14 18 24 38 21 45 -3 7 -1 16 4 19
6 4 10 19 10 34 0 16 7 34 15 41 17 14 21 60 5 60 -5 0 -10 8 -10 18 0 10 -4
22 -9 28 -5 5 -11 18 -14 29 -3 14 -5 11 -6 -10z"/>
<path d="M3484 3764 c3 -9 6 -22 6 -29 0 -7 23 -32 51 -54 44 -35 48 -41 28
-41 -17 0 -20 -3 -11 -12 10 -10 69 -14 78 -5 2 2 6 27 10 56 5 46 3 56 -17
77 -19 21 -32 24 -87 24 -54 0 -63 -2 -58 -16z"/>
<path d="M2245 3513 c-16 -2 -39 -6 -51 -8 -28 -6 -67 -42 -59 -54 8 -14 45
-14 45 -1 0 6 7 10 15 10 8 0 15 -4 15 -10 0 -19 41 -31 84 -25 33 5 46 13 55
31 15 33 14 44 -4 44 -8 0 -15 4 -15 8 0 9 -32 11 -85 5z"/>
<path d="M2295 3209 c-37 -26 -75 -83 -75 -111 0 -27 38 -78 58 -78 9 0 26 15
38 33 21 32 21 32 1 48 -16 12 -18 19 -9 34 6 11 18 37 26 58 18 44 7 48 -39
16z"/>
<path d="M1264 2588 c-4 -6 -3 -8 3 -5 6 4 14 0 17 -9 3 -8 2 -13 -2 -10 -4 2
-16 -2 -27 -10 -10 -8 -15 -14 -11 -14 5 0 -2 -9 -15 -20 -22 -17 -25 -18 -36
-3 -7 9 -16 13 -20 9 -4 -4 -3 -10 2 -14 6 -4 16 -15 24 -25 13 -16 12 -17
-11 -8 -18 7 -25 6 -25 -2 1 -34 -5 -46 -24 -52 -12 -4 -18 -13 -15 -20 3 -9
0 -12 -9 -9 -7 3 -16 -3 -20 -15 -6 -20 -39 -37 -62 -33 -17 4 -17 -15 0 -21
7 -3 4 -6 -6 -6 -10 -1 -38 -12 -63 -26 -25 -14 -51 -25 -59 -25 -9 0 -24 -6
-35 -12 -17 -11 -22 -10 -29 0 -6 11 -20 11 -66 3 -81 -15 -126 -45 -184 -123
-62 -84 -74 -106 -67 -124 3 -8 1 -24 -5 -36 -9 -22 -9 -21 -6 5 3 15 2 27 0
27 -9 0 -42 -45 -43 -58 0 -7 -4 -11 -9 -8 -9 6 -35 -21 -70 -71 -18 -26 -20
-36 -11 -50 10 -16 11 -16 6 -1 -7 23 17 41 32 26 9 -9 12 -9 12 0 0 7 11 12
25 12 33 0 32 -16 -5 -47 -17 -13 -30 -31 -30 -39 0 -8 -4 -14 -10 -14 -5 0
-10 -9 -10 -20 0 -11 -5 -20 -11 -20 -5 0 -8 -4 -5 -9 3 -5 -6 -16 -20 -26
-27 -17 -124 -46 -135 -39 -3 2 -16 -7 -28 -20 -20 -21 -21 -25 -7 -39 9 -9
16 -18 16 -21 0 -12 -28 -6 -33 7 -6 16 -23 -1 -32 -33 -4 -17 -3 -21 3 -11 7
9 12 10 16 2 4 -6 12 -9 17 -6 5 4 12 -1 15 -9 3 -8 14 -18 25 -21 21 -7 26
-35 7 -35 -20 -1 -75 -52 -82 -77 -4 -12 -20 -26 -36 -31 -36 -13 -36 -47 0
-79 22 -19 23 -24 13 -42 -7 -12 -13 -29 -13 -40 0 -10 -7 -24 -15 -31 -12
-10 -15 -9 -16 6 0 15 -3 14 -11 -6 -6 -15 -12 -20 -15 -12 -9 25 -23 0 -22
-41 1 -40 2 -40 9 -12 6 25 8 21 9 -25 0 -41 -2 -51 -10 -40 -8 11 -9 4 -4
-25 4 -22 8 -49 10 -60 1 -11 23 -63 48 -115 30 -62 57 -140 77 -220 17 -69
35 -134 40 -145 5 -11 16 -47 25 -80 62 -232 74 -281 75 -288 0 -4 19 -28 41
-52 l42 -45 1204 0 1205 0 -26 31 c-20 24 -26 41 -26 77 l1 47 27 -35 c15 -19
44 -54 66 -77 l39 -43 90 0 90 0 -54 57 c-51 55 -84 92 -193 222 -44 53 -66
101 -66 149 0 12 3 22 8 21 4 0 31 -30 60 -67 61 -77 171 -210 257 -311 l60
-70 504 0 c475 -1 503 0 496 17 -49 116 -85 244 -86 302 0 82 -11 139 -39 215
-21 58 -21 61 -4 92 l17 33 17 -38 c9 -21 20 -60 24 -87 13 -85 43 -147 98
-205 50 -51 53 -57 52 -105 0 -27 -6 -76 -14 -107 -10 -41 -11 -66 -4 -85 l9
-28 383 -3 c371 -2 383 -2 373 16 -7 14 -5 37 9 83 24 78 41 226 47 420 5 142
4 148 -21 197 -14 28 -26 62 -26 74 0 13 -4 30 -9 37 -8 12 -11 9 -16 -12 l-7
-27 -25 37 c-30 45 -56 155 -77 329 -9 72 -22 144 -31 160 -10 20 -15 61 -16
129 0 55 -5 125 -10 155 -5 30 -9 79 -9 109 2 72 -9 151 -21 151 -5 0 -9 -10
-10 -22 -1 -18 -3 -16 -10 9 -10 35 -9 50 4 46 14 -5 7 25 -13 48 l-19 24 -1
-22 c0 -12 -4 -25 -10 -28 -6 -4 -9 10 -8 34 1 29 -6 49 -25 75 -15 19 -27 38
-27 42 0 7 -128 161 -172 206 -15 16 -28 34 -28 41 0 7 -14 28 -30 47 -16 19
-30 38 -30 43 0 16 -21 5 -57 -29 -61 -57 -118 -93 -215 -136 -73 -32 -92 -38
-100 -27 -8 11 -9 11 -5 -1 6 -20 -144 -93 -156 -76 -6 8 -10 7 -14 -1 -2 -7
-14 -13 -26 -14 -12 0 -16 -3 -9 -6 15 -6 -16 -31 -68 -55 -19 -9 -46 -28 -59
-42 -27 -28 -43 -34 -35 -12 3 7 -2 16 -11 20 -11 4 -14 2 -8 -7 4 -6 -8 0
-26 16 -18 15 -39 27 -47 27 -8 0 -14 5 -14 10 0 6 -5 10 -12 10 -6 0 -19 7
-29 16 -9 8 -28 17 -41 19 -12 1 -35 6 -49 9 -18 5 -30 2 -38 -8 -8 -9 -19
-16 -26 -16 -16 0 -26 -38 -18 -69 5 -21 4 -22 -12 -13 -13 7 -24 6 -37 -1
-13 -9 -23 -9 -36 -1 -24 15 -29 117 -8 150 16 23 23 60 8 39 -4 -6 -25 -10
-47 -10 -37 0 -41 -3 -62 -45 -30 -59 -29 -75 5 -95 35 -21 67 -92 50 -112 -9
-11 -13 -12 -20 -1 -7 10 -11 9 -19 -4 -14 -25 -46 -22 -129 12 -40 17 -74 30
-75 30 -1 0 -5 -18 -9 -40 -6 -41 -27 -60 -66 -60 -14 0 -21 -6 -19 -17 3 -31
-1 -43 -12 -43 -6 0 -17 -7 -25 -15 -12 -12 -12 -15 -2 -15 8 0 6 -5 -5 -11
-35 -21 -83 9 -189 117 -96 97 -168 151 -228 169 -23 7 -75 30 -225 100 -127
60 -189 84 -300 119 -124 39 -210 78 -282 127 -23 16 -46 29 -51 29 -6 0 -12
4 -14 9 -6 17 -193 151 -210 151 -9 0 -20 -5 -24 -12z m1560 -883 c4 -19 10
-35 15 -35 4 0 18 -24 32 -52 29 -63 99 -153 245 -314 132 -145 154 -174 154
-208 l0 -25 -33 19 c-18 11 -74 66 -124 122 -50 57 -107 119 -127 138 -52 49
-121 148 -136 195 -11 34 -14 37 -21 20 -6 -17 -9 -15 -24 19 -23 55 -29 96
-16 129 14 37 27 34 35 -8z m-1399 -362 c7 -82 6 -93 -9 -93 -9 0 -16 -8 -16
-19 0 -11 -14 -29 -30 -41 -17 -12 -30 -29 -28 -39 1 -9 -1 -22 -6 -29 -5 -8
-10 -35 -11 -60 -2 -32 -11 -56 -31 -81 -28 -36 -21 -35 32 5 36 27 102 46 72
21 -10 -8 -18 -20 -18 -26 0 -7 -4 -17 -10 -24 -62 -76 -100 -128 -101 -139 0
-7 -4 -4 -9 7 -7 16 -9 17 -9 3 -1 -9 -26 -40 -56 -69 -32 -30 -53 -59 -50
-66 2 -8 -1 -16 -8 -19 -6 -2 -13 -18 -14 -35 -1 -17 -13 -63 -27 -102 -13
-40 -27 -107 -31 -149 -3 -42 -12 -89 -19 -103 -12 -24 -14 -21 -18 45 -5 60
-10 77 -36 109 -27 34 -29 39 -16 62 7 13 13 48 14 78 0 49 -4 58 -50 117 -40
51 -50 71 -50 102 0 25 -9 52 -25 76 -33 49 -36 104 -7 125 13 9 49 38 82 64
52 42 60 53 66 94 6 44 9 47 103 108 53 35 116 81 141 104 25 22 54 41 65 41
11 1 36 9 55 20 19 10 38 15 42 12 3 -4 10 -49 13 -99z m1331 7 c15 -39 31
-70 35 -70 4 0 9 19 11 43 l3 42 56 -80 c31 -44 80 -107 109 -140 29 -33 76
-86 104 -119 28 -32 56 -64 61 -70 48 -52 125 -149 125 -157 0 -6 5 -7 10 -4
6 4 10 -9 9 -32 -1 -32 -2 -34 -8 -13 -4 14 -12 26 -19 26 -7 1 -16 2 -21 3
-18 2 -116 98 -220 216 -58 66 -114 129 -124 140 -10 11 -35 46 -54 78 -20 31
-38 57 -40 57 -2 0 -4 -10 -3 -22 5 -56 0 -102 -10 -92 -19 19 -80 179 -80
211 0 38 9 65 20 58 5 -3 21 -37 36 -75z m-106 -227 c0 -6 25 -64 55 -128 44
-94 55 -127 55 -168 0 -44 -2 -49 -14 -37 -12 14 -50 94 -113 243 -21 51 -23
62 -12 94 8 26 14 32 20 22 5 -8 9 -19 9 -26z m220 -170 c90 -116 256 -315
358 -427 46 -52 62 -77 62 -99 l0 -29 -27 23 c-67 57 -275 273 -319 331 -26
35 -51 65 -54 68 -20 18 -90 110 -104 137 -17 34 -22 103 -7 103 4 0 46 -48
91 -107z m52 -384 c131 -164 234 -284 329 -386 34 -35 49 -60 49 -78 0 -23 -2
-25 -14 -15 -8 6 -12 19 -9 28 4 14 3 14 -5 3 -8 -11 -19 -5 -57 30 -63 58
-163 162 -200 207 -16 19 -48 56 -70 81 -65 74 -161 194 -173 218 -7 12 -12
41 -12 64 0 53 -12 64 162 -152z"/>
</g>
</svg>
